<?xml version="1.0" encoding="UTF-8" standalone="no"?>
<svg
   xmlns:dc="http://purl.org/dc/elements/1.1/"
   xmlns:cc="http://creativecommons.org/ns#"
   xmlns:rdf="http://www.w3.org/1999/02/22-rdf-syntax-ns#"
   xmlns:svg="http://www.w3.org/2000/svg"
   xmlns="http://www.w3.org/2000/svg"
   width="34.660416mm"
   height="34.660416mm"
   viewBox="0 0 34.660416 34.660416"
   version="1.1"
   id="svg8">
  <defs
     id="defs2" />
  <metadata
     id="metadata5">
    <rdf:RDF>
      <cc:Work
         rdf:about="">
        <dc:format>image/svg+xml</dc:format>
        <dc:type
           rdf:resource="http://purl.org/dc/dcmitype/StillImage" />
        <dc:title></dc:title>
      </cc:Work>
    </rdf:RDF>
  </metadata>
  <g
     id="layer1">
    <path
       style="fill:#548235;stroke-width:0.264583;fill-opacity:1"
       d="m 13.943231,30.228645 c -0.061,-0.10914 -0.02501,-0.991158 0.07999,-1.960036 0.104999,-0.96888 0.106117,-2.635755 0.0025,-3.704167 -0.103637,-1.068412 -0.139633,-2.031864 -0.08,-2.141005 0.05964,-0.109141 1.186782,-0.198437 2.504765,-0.198437 2.327978,0 2.432796,-0.02677 3.674631,-0.938357 1.502691,-1.103077 1.763027,-1.697184 1.152203,-2.62942 -0.821365,-1.253561 -1.1011,-4.89889 -0.375931,-4.89889 0.401757,0 1.096382,1.898354 1.286406,3.515649 l 0.19313,1.643726 0.680494,-1.322917 c 0.474659,-0.922763 0.72007,-1.897138 0.811335,-3.221306 0.100444,-1.45733 0.313914,-2.222431 0.918812,-3.293115 1.158956,-2.051384 1.40219,-1.9668883 1.40219,0.487098 0,1.890031 -0.09879,2.290846 -1.048815,4.255382 -0.576849,1.192849 -0.998855,2.168816 -0.937791,2.168816 0.06106,0 0.537955,-0.289723 1.05976,-0.64383 1.205656,-0.81818 3.346956,-1.534712 4.258787,-1.425095 l 0.703323,0.08455 -0.760862,0.765604 c -1.064149,1.070785 -3.182882,2.004034 -4.597318,2.025004 -1.108382,0.01643 -1.259439,0.107993 -2.186835,1.325502 l -0.99621,1.307849 h 1.203145 c 1.303266,0 3.038233,0.596646 3.038233,1.044832 0,0.41862 -2.784364,0.337854 -3.861005,-0.111995 -0.895094,-0.373995 -0.992133,-0.357042 -2.353217,0.411106 l -1.419624,0.801187 -0.166408,1.639414 c -0.09153,0.901677 -0.06051,2.383433 0.06893,3.29279 0.129435,0.909357 0.175684,1.713029 0.102776,1.785937 -0.213112,0.213111 -4.235438,0.152302 -4.357386,-0.06588 z m -0.07437,-9.921875 c 0.264356,-1.304868 0.357352,-3.570758 0.194137,-4.730239 -0.149876,-1.06472 -0.336023,-1.349071 -1.426479,-2.179034 -1.206657,-0.918406 -1.31428,-0.948234 -2.8442712,-0.788319 -1.0270376,0.107347 -1.5901606,0.06918 -1.5901606,-0.107763 0,-0.372776 0.6541809,-0.595165 1.7507402,-0.595165 0.8400886,0 0.8902476,-0.04384 0.6225116,-0.544112 -0.16016,-0.299262 -0.43224,-0.583321 -0.6046221,-0.631242 C 9.7983311,10.682975 9.1460543,10.504763 8.521209,10.33487 7.8963638,10.164976 7.003395,9.6786185 6.5368341,9.2540752 L 5.6885416,8.4821782 6.3713047,8.4744233 C 6.7468243,8.4701582 7.6181248,8.7522297 8.3075278,9.1012498 9.3323702,9.6200911 9.5297494,9.6562839 9.3897128,9.2996873 8.4791869,6.9810756 8.2548411,3.9076677 9.0311402,4.387447 c 0.5161177,0.3189782 1.2758418,2.3407753 1.2842818,3.4177622 0.01032,1.3167485 1.235809,3.5387428 2.471555,4.4812918 0.79274,0.604651 1.132239,0.678082 3.135046,0.678082 1.235318,0 2.304065,0.05803 2.374994,0.128961 0.07093,0.07093 0.02661,0.985942 -0.09849,2.033363 -0.125917,1.054289 -0.126907,2.768345 -0.0022,3.839789 l 0.225238,1.935387 h -2.336646 c -2.282535,0 -2.333854,-0.01379 -2.216041,-0.595313 z m 0.03657,-9.524999 C 14.137446,9.7269243 14.128984,4.9843379 13.893761,4.2432157 13.730375,3.7284294 13.828686,3.7041666 16.077963,3.7041666 h 2.355288 l -0.237355,1.6536458 c -0.219635,1.5301888 -0.09634,4.7378836 0.223744,5.8208336 0.123309,0.417199 -0.102645,0.46302 -2.28325,0.46302 h -2.420102 z"
       id="path847" />
  </g>
</svg>
