<?xml version="1.0" encoding="UTF-8" standalone="no"?>
<svg
   xmlns:dc="http://purl.org/dc/elements/1.1/"
   xmlns:cc="http://creativecommons.org/ns#"
   xmlns:rdf="http://www.w3.org/1999/02/22-rdf-syntax-ns#"
   xmlns:svg="http://www.w3.org/2000/svg"
   xmlns="http://www.w3.org/2000/svg"
   width="17.197916mm"
   height="17.197916mm"
   viewBox="0 0 17.197916 17.197916"
   version="1.1"
   id="svg8">
  <defs
     id="defs2" />
  <metadata
     id="metadata5">
    <rdf:RDF>
      <cc:Work
         rdf:about="">
        <dc:format>image/svg+xml</dc:format>
        <dc:type
           rdf:resource="http://purl.org/dc/dcmitype/StillImage" />
        <dc:title></dc:title>
      </cc:Work>
    </rdf:RDF>
  </metadata>
  <g
     id="layer1">
    <g
       id="g947">
      <path
         id="path926"
         style="fill:none;stroke:#547dc4;stroke-width:0.565;stroke-opacity:1;stroke-miterlimit:4;stroke-dasharray:none"
         d="M 10.63058,7.0161829 A 4.1577382,4.1577382 0 0 1 6.4728417,11.173921 4.1577382,4.1577382 0 0 1 2.3151035,7.0161829 4.1577382,4.1577382 0 0 1 6.4728417,2.8584447 4.1577382,4.1577382 0 0 1 10.63058,7.0161829 Z" />
      <path
         id="rect938"
         style="fill:none;stroke:#547dc4;stroke-width:0.565;stroke-opacity:1;stroke-miterlimit:4;stroke-dasharray:none"
         transform="rotate(-46.457321)"
         d="m -0.89687884,14.890929 c 0.45626598,0 0.8235848,0.355142 0.8235848,0.796282 v 2.942561 c 0,0.44114 -0.36731882,0.796282 -0.8235848,0.796282 -0.45626596,0 -0.82358476,-0.355142 -0.82358476,-0.796282 v -2.942561 c 0,-0.44114 0.3673188,-0.796282 0.82358476,-0.796282 z" />
      <path
         style="fill:none;stroke:#547dc4;stroke-width:0.565;stroke-linecap:butt;stroke-linejoin:miter;stroke-opacity:1;stroke-miterlimit:4;stroke-dasharray:none"
         d="M 10.176005,10.908395 9.3419945,10.025294 v 0"
         id="path942" />
    </g>
  </g>
</svg>
