<?xml version="1.0" encoding="UTF-8" standalone="no"?>
<svg
   xmlns:dc="http://purl.org/dc/elements/1.1/"
   xmlns:cc="http://creativecommons.org/ns#"
   xmlns:rdf="http://www.w3.org/1999/02/22-rdf-syntax-ns#"
   xmlns:svg="http://www.w3.org/2000/svg"
   xmlns="http://www.w3.org/2000/svg"
   width="64.939163mm"
   height="12.733842mm"
   viewBox="0 0 64.939163 12.733842"
   version="1.1"
   id="svg8">
  <defs
     id="defs2" />
  <metadata
     id="metadata5">
    <rdf:RDF>
      <cc:Work
         rdf:about="">
        <dc:format>image/svg+xml</dc:format>
        <dc:type
           rdf:resource="http://purl.org/dc/dcmitype/StillImage" />
        <dc:title></dc:title>
      </cc:Work>
    </rdf:RDF>
  </metadata>
  <g
     id="layer1"
     transform="translate(-53.826,-92.57174)">
    <g
       aria-label="中医食疗"
       id="text835"
       style="font-size:16.9333px;line-height:1.25;font-family:'Source Code Variable';-inkscape-font-specification:'Source Code Variable';stroke-width:0.264583"
       transform="translate(-0.13363476,8.8198944)">
      <path
         d="m 67.54013,85.546776 q 0.2032,0 0.389466,0.118533 0.2032,0.118533 0.2032,0.338666 0,0.423332 -0.643466,1.134531 -0.270933,0.270933 -0.643465,1.100664 -0.372533,0.812799 -0.372533,1.049865 0,0.237066 0.08467,0.406399 0.08467,0.169333 0.08467,0.321733 0,0.135466 -0.186266,0.321733 -0.169333,0.169333 -0.575732,0.169333 -0.406399,0 -1.015998,-0.08467 -0.592666,-0.1016 -1.625597,-0.1016 -1.032931,0 -1.236131,0.01693 -0.2032,0.01693 -0.321733,0.169333 -0.101599,0.135466 -0.101599,0.389466 l 0.01693,1.879596 q 0,2.285995 -0.1016,2.523062 -0.08467,0.253999 -0.406399,0.406399 -0.321733,0.169333 -0.541866,0.169333 -0.220133,0 -0.287866,-0.1524 -0.06773,-0.135466 -0.06773,-0.829732 0,-0.711198 0.0508,-2.015062 l 0.08467,-2.082796 q 0,-0.372533 -0.406399,-0.372533 -0.575732,0 -2.336795,0.321733 -1.74413,0.321733 -3.098794,1.066798 -0.1524,0.08467 -0.270933,0.08467 -0.253999,0 -0.253999,-0.304799 0,-0.3048 0.237066,-0.728132 0.253999,-0.440266 0.609599,-0.711199 0.372532,-0.270932 0.541865,-0.863598 0.169333,-0.609599 0.169333,-1.032931 0,-0.829732 -0.541865,-1.066798 -0.524933,-0.237066 -0.728132,-0.474133 -0.2032,-0.253999 -0.2032,-0.457199 0,-0.220133 0.118533,-0.270932 0.135467,-0.06773 0.761999,-0.1524 0.643465,-0.08467 1.151464,-0.169333 1.862663,-0.406399 3.826926,-0.541866 0.440266,-0.03387 0.558799,-0.389466 0.169333,-0.592665 0.507999,-0.592665 0.372532,0 0.626532,0.626532 0.06773,0.186266 0.186266,0.237066 0.135467,0.0508 0.524932,0.0508 2.015063,0 3.115728,0.321733 1.100664,0.321732 1.405464,0.321732 0.304799,0 0.440265,-0.06773 0.135467,-0.08467 0.270933,-0.08467 z m -2.607728,3.43746 q 0.270933,0 0.372533,-0.169333 0.101599,-0.186267 0.372532,-0.778932 0.270933,-0.609599 0.270933,-0.897465 0,-0.287866 -0.220133,-0.423333 -0.220133,-0.135466 -1.236131,-0.203199 -1.015998,-0.08467 -1.710263,-0.08467 -0.677332,0 -0.829732,0.01693 -0.135466,0 -0.237066,0.101599 -0.08467,0.08467 -0.118533,0.287867 -0.01693,0.203199 -0.01693,1.523997 0,0.338666 0.135466,0.423332 0.135466,0.08467 0.338666,0.06773 0.220133,-0.01693 0.795865,-0.01693 0.575732,0 1.168398,0.06773 z m -8.127984,0.423332 q 0.0508,0 0.1016,-0.01693 1.371597,-0.287866 2.980261,-0.423333 0.118533,0 0.321732,-0.101599 0.2032,-0.118534 0.237066,-0.372533 0.03387,-0.254 0.03387,-1.422397 0,-0.287866 -0.06773,-0.389466 -0.06773,-0.118533 -0.3048,-0.118533 -0.237066,0 -0.982131,0.118533 -0.728132,0.1016 -1.371597,0.237066 -0.626532,0.135466 -0.761999,0.220133 -0.118533,0.06773 -0.237066,0.220133 -0.118533,0.135466 -0.1524,0.253999 -0.03387,0.1016 -0.03387,0.474133 0,0.355599 -0.06773,0.948265 0,0.372532 0.304799,0.372532 z"
         style="font-style:normal;font-variant:normal;font-weight:normal;font-stretch:normal;font-size:16.9333px;font-family:STLiti;-inkscape-font-specification:STLiti;stroke-width:0.264583"
         id="path837" />
      <path
         d="m 85.387796,93.149827 q 0,0.1524 -0.812798,1.303865 -0.812799,1.151464 -1.642531,1.151464 -0.558798,0 -1.777996,-0.626532 -1.219198,-0.643466 -2.946394,-0.643466 -0.880532,0 -2.726262,0.2032 -1.845729,0.2032 -2.370662,0.372533 -0.507999,0.169333 -1.23613,0.304799 -0.711199,0.1524 -0.999065,0.1524 -0.287866,0 -0.372533,-0.118533 -0.08467,-0.118533 -0.08467,-0.491066 0,-1.032931 0.982131,-1.303864 0.507999,-0.1524 0.643466,-0.423333 0.152399,-0.270932 0.186266,-0.558799 l 0.220133,-2.015062 q 0.169333,-1.710264 0.169333,-2.370662 0,-0.677332 -0.08467,-0.914398 -0.08467,-0.237067 -0.304799,-0.4572 -0.440266,-0.457199 -0.440266,-0.897464 0,-0.440266 0.507999,-0.677332 0.524932,-0.254 0.863598,-0.254 0.08467,0 0.169333,0.0508 0.1016,0.0508 0.220133,0.0508 0.118533,0 0.321733,-0.03387 2.675461,-0.457199 5.740389,-0.457199 2.184395,0 2.777061,0.270933 0.338666,0.1524 0.457199,0.186266 0.135466,0.01693 0.355599,0.01693 0.220133,0 0.220133,0.169333 0,0.270932 -0.321733,0.677332 -0.321732,0.406399 -1.23613,0.406399 -0.507999,0 -1.185331,-0.1524 -1.168398,-0.253999 -2.793995,-0.253999 -0.491066,0 -0.592665,0.03387 -0.1016,0.01693 -0.220133,0.135467 -0.118533,0.101599 -0.254,0.423332 -0.135466,0.304799 -0.135466,0.491066 0,0.355599 0.457199,0.270933 1.066798,-0.169333 2.184396,-0.169333 1.117597,0 2.082795,0.135466 0.965199,0.118533 1.134532,0.2032 0.186266,0.08467 0.186266,0.237066 0,0.152399 -0.440266,0.524932 -0.423332,0.372533 -0.965198,0.355599 -0.541866,-0.01693 -1.371597,-0.01693 -0.812799,0 -0.965198,0.03387 -0.1524,0.01693 -0.237067,0.237066 -0.06773,0.220133 -0.06773,0.355599 0,0.118533 0.06773,0.1524 0.06773,0.01693 0.3556,0.01693 1.54093,0 2.472261,0.3048 0.948265,0.287866 0.948265,0.474132 0,0.169333 -0.457199,0.626532 -0.440266,0.440266 -1.337731,0.355599 -0.321732,-0.03387 -0.558798,-0.03387 -0.237067,0 -0.237067,0.169333 0.169333,1.253064 0.186267,1.473197 0.03387,0.203199 0.101599,0.253999 0.06773,0.0508 0.592666,0.1016 0.524932,0.03387 0.846665,0.169333 1.185331,0.423333 2.235196,0.423333 0.745065,0 1.066797,-0.220133 0.338666,-0.220133 0.372533,-0.220133 0.0508,0 0.0508,0.03387 z m -11.429978,-4.67359 q 0.389466,0 0.626533,-0.3048 0.474132,-0.643465 0.745065,-0.914398 0.474132,-0.440266 0.474132,-1.117598 0,-0.169333 -0.1524,-0.169333 -0.270932,0 -0.948264,0.237066 -0.660399,0.220133 -0.745066,0.321733 -0.06773,0.1016 -0.101599,0.592666 l -0.06773,1.117597 q 0,0.237067 0.169333,0.237067 z m 2.387596,2.895594 q 0.08467,-0.186266 0.08467,-0.254 0,-0.06773 -0.08467,-0.06773 -0.08467,0 -0.541866,0.08467 -0.440266,0.06773 -0.728132,0.169333 -0.270933,0.1016 -0.541865,0.1016 -0.254,0 -0.4064,-0.270933 -0.135466,-0.270933 -0.135466,-0.507999 0,-0.541866 0.609599,-0.626532 0.457199,-0.0508 1.083731,-0.254 0.626532,-0.203199 0.999065,-0.253999 0.389466,-0.06773 0.491065,-0.1524 0.118534,-0.08467 0.220133,-0.338666 0.1016,-0.270933 0.1016,-0.372533 0,-0.101599 -0.169333,-0.101599 -0.914398,0 -2.167462,0.406399 -1.236131,0.389466 -1.388531,0.541865 -0.1016,0.08467 -0.118533,0.3556 l -0.321733,3.166527 q 0,0.237066 0.237067,0.237066 0.01693,0 0.745065,-0.08467 0.745065,-0.08467 0.897465,-0.101599 0.169333,-0.03387 0.287866,-0.118533 0.135466,-0.1016 0.220133,-0.270933 z m 2.743194,1.337731 q 0,-0.03387 -0.03387,-0.1016 -0.287866,-0.643466 -0.406399,-1.117598 -0.1016,-0.474132 -0.169333,-0.524932 -0.06773,-0.0508 -0.237067,-0.0508 -0.169333,0 -0.270932,0.1016 -0.1016,0.101599 -0.389466,0.609598 -0.270933,0.507999 -0.457199,0.795866 -0.186267,0.270932 -0.186267,0.372532 0,0.1016 0.237066,0.1016 l 0.558799,-0.01693 q 0.3048,-0.01693 0.914399,-0.01693 0.440265,0 0.440265,-0.152399 z"
         style="font-style:normal;font-variant:normal;font-weight:normal;font-stretch:normal;font-size:16.9333px;font-family:STLiti;-inkscape-font-specification:STLiti;stroke-width:0.264583"
         id="path839" />
      <path
         d="m 102.592,87.663438 q 0,0.220133 -0.6604,1.083731 -0.64347,0.863599 -1.23613,0.863599 -0.32174,0 -0.728135,-0.254 -0.389466,-0.253999 -1.015998,-0.880531 -0.118533,-0.118533 -0.2032,-0.118533 -0.06773,0 -0.169333,0.101599 -0.1016,0.1016 -0.474132,0.694266 -0.372533,0.575732 -0.728132,1.354664 -0.355599,0.778931 -0.406399,0.999064 -0.03387,0.2032 -0.06773,0.558799 -0.01693,0.3556 -0.609599,0.524933 -0.1524,0.03387 -0.1524,0.101599 0,0.06773 0.08467,0.1524 l 0.491065,0.389466 q 2.269062,1.79493 2.556929,2.099729 0.304799,0.3048 0.304799,0.507999 0,0.2032 -0.169333,0.423333 -0.169333,0.220133 -0.491066,0.220133 -0.321732,0 -0.728132,-0.2032 -0.389466,-0.186266 -0.745065,-0.592666 -0.355599,-0.389465 -0.575732,-0.524932 -0.2032,-0.135466 -0.524932,-0.135466 -0.3048,0 -2.116663,0.08467 -1.811863,0.06773 -2.895594,0.220133 -1.083731,0.169333 -1.913463,0.491066 -0.220133,0.06773 -0.541866,0.06773 -0.304799,0 -0.575732,-0.1524 -0.253999,-0.135466 -0.253999,-0.372532 0,-0.406399 0.169333,-0.643466 0.186266,-0.253999 0.474132,-0.338666 0.304799,-0.08467 0.982131,-0.152399 0.3048,-0.03387 0.440266,-0.321733 0.1524,-0.304799 0.338666,-1.523997 0.2032,-1.219198 0.2032,-2.099729 0,-0.880532 -0.0508,-1.337731 -0.03387,-0.474132 -0.03387,-0.507999 0,-0.169333 0.186267,-0.423332 0.203199,-0.270933 0.304799,-0.270933 0.118533,0 0.338666,0.321732 0.118533,0.169333 0.406399,0.135467 1.100665,-0.169333 2.590795,-0.169333 1.490131,0 2.218262,0.08467 0.745066,0.08467 0.812799,0.08467 0.203199,0 0.423332,-0.2032 0.220133,-0.203199 0.220133,-0.287866 0,-0.1016 -0.423332,-0.491066 -0.423333,-0.406399 -0.491066,-0.406399 -0.08467,0 -0.169333,0.169333 -0.355599,0.660399 -0.982131,0.575732 -0.626532,-0.101599 -1.083732,-0.101599 -0.440265,0 -0.982131,0.135466 -0.524932,0.135466 -0.660399,0.135466 -0.660398,0 -1.28693,-0.643465 -0.135467,-0.135466 -0.220133,-0.135466 -0.06773,0 -0.1524,0.06773 -0.728132,0.541865 -1.608664,1.151464 -0.863598,0.592666 -1.117597,0.677332 -0.254,0.08467 -0.524933,0.08467 -0.253999,0 -0.491065,-0.169333 -0.237067,-0.186267 -0.338666,-0.982132 -0.1016,-0.795865 -0.1016,-1.015998 0,-0.237066 0.06773,-0.237066 0.08467,0 0.169333,0.06773 0.423333,0.4064 0.846665,0.4064 0.440266,0 1.219198,-0.338666 0.795865,-0.338666 1.710263,-0.812799 0.931331,-0.474132 1.74413,-0.982131 0.812798,-0.524933 1.066798,-0.795865 0.253999,-0.287866 0.355599,-0.287866 0.118533,0 0.372533,0.101599 0.270932,0.1016 0.389466,0.3048 0.135466,0.203199 0.270932,0.338666 0.135467,0.118533 1.236131,0.846665 1.100665,0.728132 1.79493,1.134531 0.694265,0.406399 1.202264,0.643465 0.524932,0.237066 0.897462,0.338666 0.38947,0.08467 0.6604,0.08467 0.28787,0 0.508,-0.03387 0.23707,-0.03387 0.44027,-0.03387 0.2032,0 0.2032,0.152399 z m -6.333058,-1.59173 q 0,-0.08467 -0.287866,-0.304799 l -0.609599,-0.423333 q -0.287866,-0.203199 -0.457199,-0.203199 -0.1016,0 -0.474132,0.203199 l -0.761999,0.406399 q -0.406399,0.220133 -0.491065,0.287866 -0.06773,0.0508 -0.06773,0.1016 0,0.0508 0.08467,0.0508 0.1016,0 0.186266,-0.01693 0.457199,-0.08467 1.59173,-0.08467 l 1.151465,0.03387 q 0.135466,0 0.135466,-0.0508 z m 0.0508,3.674526 q 0.220133,0 0.338666,-0.1524 0.118533,-0.152399 0.118533,-0.253999 0,-0.186266 -0.321733,-0.220133 -0.321732,-0.03387 -1.134531,-0.03387 -0.812798,0 -2.015062,0.169333 -1.202265,0.1524 -1.354664,0.254 -0.135467,0.08467 -0.135467,0.270933 0,0.186266 0.2032,0.186266 0.0508,0 0.135466,-0.01693 1.185331,-0.237066 2.793995,-0.237066 z m -4.504258,1.981196 q 0.06773,0 0.169333,-0.01693 1.761063,-0.237066 3.945459,-0.270933 0.270933,0 0.270933,-0.389466 0,-0.152399 -0.169333,-0.169333 -0.169333,-0.03387 -0.931332,-0.03387 -0.745065,0 -1.54093,0.06773 -0.778932,0.06773 -1.253064,0.169333 -0.457199,0.08467 -0.507999,0.135466 -0.0508,0.03387 -0.1016,0.169333 -0.03387,0.135467 -0.03387,0.237066 0,0.1016 0.152399,0.1016 z m -0.270933,2.319862 q 0.287867,0 0.609599,-0.06773 0.321733,-0.06773 0.592666,-0.406399 0.270933,-0.338666 0.423332,-0.541866 0.1524,-0.203199 0.1524,-0.270932 0,-0.08467 -0.270933,-0.08467 -0.609599,0 -1.049864,0.08467 -0.440266,0.06773 -0.507999,0.152399 -0.06773,0.06773 -0.270933,0.982132 0,0.152399 0.321732,0.152399 z m 4.080926,-0.203199 q 0,-0.08467 -0.186267,-0.237066 -0.186266,-0.1524 -0.406399,-0.372533 -0.203199,-0.237066 -0.321732,-0.237066 -0.1016,0 -0.237067,0.186266 -0.135466,0.186266 -0.355599,0.406399 -0.2032,0.220133 -0.2032,0.287866 0,0.0508 0.06773,0.06773 0.08467,0 0.575732,0 h 0.846665 q 0.220133,0 0.220133,-0.1016 z"
         style="font-style:normal;font-variant:normal;font-weight:normal;font-stretch:normal;font-size:16.9333px;font-family:STLiti;-inkscape-font-specification:STLiti;stroke-width:0.264583"
         id="path841" />
      <path
         d="m 118.89873,85.462109 q 0,0.287866 -0.4572,0.795865 -0.44026,0.491066 -1.26999,0.491066 -0.254,0 -0.54187,-0.0508 -1.60866,-0.338666 -2.43839,-0.338666 -1.03293,0 -2.3368,0.1016 -1.28693,0.1016 -1.71026,0.270933 -0.4064,0.152399 -0.59267,0.423332 -0.16933,0.254 -0.2032,0.745065 -0.28786,4.538125 -0.49106,5.266257 -0.18627,0.728132 -0.72814,1.64253 -0.52493,0.897465 -1.50706,0.897465 -0.3556,0 -0.57573,-0.237066 -0.22013,-0.220133 -0.49107,-0.948265 -0.27093,-0.745065 -0.27093,-0.982132 0,-0.237066 0.1016,-0.237066 0.1016,0 0.27093,0.389466 0.16934,0.372533 0.49107,0.372533 0.52493,0 0.99906,-1.015998 0.49107,-1.032932 0.49107,-1.405464 0,-0.08467 -0.0677,-0.08467 -0.0508,0 -0.22014,0.118533 -0.8128,0.524933 -1.20226,0.524933 -0.37253,0 -0.59267,-0.254 -0.2032,-0.270933 -0.2032,-0.524932 0,-0.270933 0.23707,-0.491066 0.254,-0.237066 0.54187,-0.237066 l 0.18626,0.01693 q 0.3048,0 0.94827,-0.203199 0.64346,-0.220133 0.64346,-0.575733 0,-0.355599 -0.3048,-0.355599 l -0.77893,0.08467 q -0.47413,0 -0.84666,-0.254 -0.37254,-0.253999 -0.37254,-0.541865 0,-0.3048 0.16934,-0.558799 0.18626,-0.270933 0.4572,-0.270933 0.28786,0 0.45719,0.1524 0.16934,0.152399 0.57574,0.287866 0.4064,0.135466 0.508,0.135466 0.23706,0 0.23706,-0.863598 0,-0.474133 -0.3556,-0.558799 -0.3556,-0.1016 -0.5588,-0.3048 -0.18626,-0.220132 -0.18626,-0.423332 0,-0.2032 0.11853,-0.524932 0.11853,-0.338666 0.3556,-0.338666 0.23707,0 0.69427,0.101599 0.45719,0.1016 0.57573,0.1016 0.13546,0 0.3048,-0.06773 0.88053,-0.287866 1.98119,-0.474132 0.64347,-0.08467 0.59267,-0.474133 -0.0169,-0.220133 -0.0169,-0.491065 0,-0.270933 0.13547,-0.4064 0.1524,-0.135466 0.67733,-0.135466 0.54187,0 0.82974,0.2032 0.30479,0.203199 0.47413,0.609598 0.16933,0.4064 0.28786,0.474133 0.11854,0.06773 0.44027,0.1016 1.60866,0.08467 2.1844,0.287866 0.33866,0.118533 0.62653,0.118533 0.3048,0 0.72813,-0.1524 0.44026,-0.1524 0.7112,-0.1524 0.28786,0 0.28786,0.220133 z m -1.67639,2.082796 q 0.4064,0 0.62653,0.2032 0.23707,0.203199 0.23707,0.423332 0,0.372533 -0.94827,0.914398 -0.8128,0.507999 -1.0668,0.694266 -0.23706,0.186266 -0.88053,0.575732 -0.4572,0.253999 -0.4572,1.151464 l 0.0508,1.286931 q 0,0.643466 -0.1016,1.134531 -0.0847,0.474133 -0.28786,0.846665 -0.2032,0.372533 -0.57574,0.660399 -0.37253,0.304799 -0.66039,0.389466 -0.28787,0.1016 -0.84667,0.1016 -0.5588,0 -1.3208,-0.237067 -0.762,-0.237066 -0.9144,-0.338666 -0.1524,-0.101599 -0.1524,-0.253999 0,-0.1524 0.4064,-0.169333 0.4064,-0.01693 1.28693,-0.186266 0.88054,-0.186267 1.1176,-0.3048 0.254,-0.135466 0.44027,-0.457199 0.18626,-0.321733 0.18626,-1.269997 0,-1.439331 -0.62653,-2.302929 -0.62653,-0.863598 -1.20226,-0.863598 -0.13547,0 -0.4064,0.118533 -0.27093,0.101599 -0.52493,0.101599 -0.38947,0 -0.57574,-0.491065 -0.18626,-0.491066 -0.18626,-0.728132 0,-0.237066 0.2032,-0.406399 0.22013,-0.169333 0.8636,-0.372533 0.66039,-0.2032 1.59173,-0.321733 0.94826,-0.135466 1.94733,-0.135466 0.99906,0 1.30386,0.186266 0.3048,0.186267 0.52493,0.186267 0.23707,0 0.4572,-0.06773 0.23707,-0.06773 0.49107,-0.06773 z m -3.21733,2.184396 q 0.32173,0 0.6096,-0.3048 0.3048,-0.304799 0.3048,-0.440265 0,-0.135467 -0.4572,-0.254 -0.44027,-0.135466 -0.762,-0.135466 -0.32173,0 -0.64346,0.1016 -0.32174,0.101599 -0.32174,0.270932 0,0.1524 0.47413,0.457199 0.49107,0.3048 0.79587,0.3048 z"
         style="font-style:normal;font-variant:normal;font-weight:normal;font-stretch:normal;font-size:16.9333px;font-family:STLiti;-inkscape-font-specification:STLiti;stroke-width:0.264583"
         id="path843" />
    </g>
  </g>
</svg>
