<?xml version="1.0" encoding="UTF-8" standalone="no"?>
<svg
   xmlns:dc="http://purl.org/dc/elements/1.1/"
   xmlns:cc="http://creativecommons.org/ns#"
   xmlns:rdf="http://www.w3.org/1999/02/22-rdf-syntax-ns#"
   xmlns:svg="http://www.w3.org/2000/svg"
   xmlns="http://www.w3.org/2000/svg"
   width="48.51384mm"
   height="12.547575mm"
   viewBox="0 0 48.513839 12.547575"
   version="1.1"
   id="svg8">
  <defs
     id="defs2" />
  <metadata
     id="metadata5">
    <rdf:RDF>
      <cc:Work
         rdf:about="">
        <dc:format>image/svg+xml</dc:format>
        <dc:type
           rdf:resource="http://purl.org/dc/dcmitype/StillImage" />
        <dc:title></dc:title>
      </cc:Work>
    </rdf:RDF>
  </metadata>
  <g
     aria-label="搜索库"
     id="text837"
     style="font-size:16.9333px;line-height:1.25;font-family:'Source Code Variable';-inkscape-font-specification:'Source Code Variable';stroke-width:0.264583">
    <path
       d="m 14.731971,10.21078 h 0.237066 q 0.186267,0 0.186267,0.1016 0,0.2032 -0.795866,0.982131 -0.795865,0.778932 -1.28693,0.778932 -0.474133,0 -0.965198,-0.304799 Q 11.616244,11.480778 10.938912,10.871179 10.26158,10.244647 10.092247,10.126114 9.9229138,9.9906473 9.8382473,9.9906473 q -0.084667,0 -0.2370662,0.084667 -0.7958651,0.507999 -1.6594634,0.948265 -0.846665,0.440265 -1.1514644,0.524932 -0.2878661,0.1016 -0.507999,0.1016 -0.4910657,0 -1.0329313,-0.440266 -0.5249323,-0.457199 -0.5249323,-0.745065 0,-0.287866 0.3217327,-0.287866 0.067733,0 0.1862663,0.03387 0.1354664,0.03387 0.5249323,0.03387 0.3894659,0 1.0498646,-0.1016 0.6603987,-0.118533 1.2361309,-0.4402658 0.5926655,-0.338666 0.6942653,-0.3894659 0.1185331,-0.067733 0.1185331,-0.2031996 0,-0.1354664 -0.6603987,-0.5926655 Q 7.5522518,8.0602511 6.8749198,7.9925179 6.1637212,7.941718 6.1637212,7.5861187 q 0,-0.1354664 0.1523997,-0.338666 0.169333,-0.2031996 0.677332,-0.2031996 0.1523997,0 0.3047994,0.016933 0.169333,0.016933 0.338666,0.016933 0.169333,0 0.7450652,-0.1354664 Q 8.9577157,6.7902536 9.1270487,6.756387 9.313315,6.7225204 9.3641149,6.6039873 q 0.067733,-0.1354664 0.067733,-0.4063992 0,-0.2878661 -0.1015998,-0.2878661 -0.084666,0 -0.1523997,0.016933 -0.677332,0.1354664 -1.2530642,0.1354664 -0.5587989,0 -0.677332,0.0508 Q 7.1289193,6.1467882 7.0273195,6.2653213 6.7563867,6.587054 6.5362538,6.587054 q -0.2201329,0 -0.3725326,-0.1185331 -0.1523997,-0.1354664 -0.1523997,-0.2709328 0,-0.1354664 0.1015998,-0.3047994 Q 6.2145211,5.7234557 6.2822543,5.401723 6.3669208,5.063057 6.3499875,4.9106573 6.3330542,4.7582576 6.3330542,4.5042581 l 0.0508,-1.0837312 q 0,-0.7111986 -0.1862663,-1.2022643 -0.084666,-0.2370662 -0.084666,-0.3725326 0,-0.3555993 0.6942653,-0.3047994 0.2031996,0.016933 0.3555993,0.016933 0.169333,0 0.6942653,-0.169333 0.5249323,-0.1862663 0.7281319,-0.1862663 0.2031996,0 0.3047994,0.2201329 0.1015998,0.2201329 0.1015998,0.3894659 0,0.5418656 -1.2022643,0.5418656 -0.2539995,0 -0.3217327,0.1354664 -0.067733,0.1185331 -0.067733,0.5249323 0,0.2370662 0.1185331,0.2370662 0.1185331,0 0.4233325,-0.067733 0.3047994,-0.084666 0.4910657,-0.084666 0.1862663,0 0.3047994,0.1185331 0.1354664,0.1015998 0.1354664,0.338666 0,0.2370662 -0.2539995,0.4063992 Q 8.3819835,4.1147922 8.0263842,4.1147922 L 7.5691851,4.0978589 q -0.1523997,0 -0.2031996,0.067733 -0.0508,0.0508 -0.0508,0.3047994 0,0.2539995 0.0508,0.3555993 0.067733,0.084666 0.2878661,0.0508 Q 8.635983,4.7074577 9.2455818,4.6566578 9.4318481,4.6397245 9.482648,4.3179918 9.5503812,3.9962591 9.5503812,2.8447947 l -0.0508,-1.2699975 q 0,-0.5587989 0.3217327,-0.96519812 0.321733,-0.4063992 0.507999,-0.4063992 0.2032,0 0.304799,0.1862663 0.118534,0.1862663 0.118534,0.507999 0,1.20226432 -0.1524,1.93039622 -0.169333,1.0667979 -0.169333,1.4562638 0,0.3555993 0.203199,0.4063992 0.2032,0.033867 0.846665,0.033867 0.660399,-0.016933 0.829732,-0.0508 0.186266,-0.0508 0.254,-0.2031996 0.08467,-0.169333 0.08467,-0.338666 0,-0.169333 -0.186266,-0.169333 -0.389466,0 -0.711199,0.033867 -0.321732,0.016933 -0.338666,0.016933 -0.457199,0 -0.457199,-0.3555993 0,-0.1523997 0.169333,-0.338666 0.169333,-0.2031996 0.270933,-0.2201329 0.1016,-0.016933 0.609599,-0.016933 0.507999,0 0.728132,-0.084666 0.220133,-0.084666 0.220133,-0.3725326 0,-0.3047994 -0.237067,-0.3047994 -0.220133,0 -0.592665,0.084666 -0.355599,0.067733 -0.558799,0.067733 -0.524932,0 -0.524932,-0.3555993 0,-0.169333 0.169333,-0.4741324 0.169333,-0.3217327 0.372532,-0.3217327 0.2032,0 0.474133,0.067733 0.287866,0.067733 0.728132,0.067733 0.457199,0 0.829731,-0.084666 0.372533,-0.084666 0.474133,-0.084666 0.372532,0 0.372532,0.5249323 0,0.1523997 -0.152399,0.3047994 -0.135467,0.1354664 -0.237067,0.4233325 -0.101599,0.2709328 -0.355599,1.3377307 -0.253999,1.0498646 -0.372533,1.69333 -0.03387,0.1354664 -0.186266,0.2201329 -0.1524,0.084666 -0.304799,0.084666 -0.1524,0 -0.575732,-0.1354664 -0.4064,-0.1354664 -1.049865,-0.1354664 -0.643465,0 -0.795865,0.1015998 -0.135467,0.1015998 -0.135467,0.4402658 0,0.3217327 0.0508,0.4063992 0.06773,0.084666 0.220133,0.084666 l 0.474133,0.016933 q 0.355599,0 0.728132,-0.067733 0.389465,-0.084666 0.660398,-0.084666 0.287866,0 0.558799,0.2201329 0.270933,0.2201329 0.270933,0.3725326 0,0.1354664 -0.1016,0.2201329 -0.08467,0.067733 -0.253999,0.084666 -0.1524,0 -0.3048,0 -0.135466,0 -0.287866,0.1015998 -0.135466,0.084666 -0.406399,0.3894659 -0.270933,0.2878661 -0.541866,0.6434654 -0.270932,0.3555993 -0.270932,0.4402658 0,0.084667 0.06773,0.1354664 0.06773,0.0508 1.236131,0.4571991 1.185331,0.4063992 1.59173,0.5249322 0.423332,0.118533 0.745065,0.118533 z M 10.566379,7.8401182 q 0,-0.1354664 -0.135466,-0.1354664 -0.6603989,0 -0.9651983,0.0508 -0.2878661,0.033867 -0.2878661,0.169333 0,0.169333 0.2709328,0.4063992 0.2709328,0.2370662 0.4402658,0.2370662 0.1693328,0 0.4233328,-0.2709328 0.253999,-0.2709328 0.253999,-0.4571991 z M 2.9125276,3.9454592 q 0,-0.338666 -0.169333,-0.338666 -0.2370662,0 -1.3207974,0.3217327 -0.42333246,0.1185331 -0.67733196,0.1185331 -0.507999,0 -0.507999,-0.4910657 0,-0.2539995 0.0846665,-0.507999 0.0846665,-0.2709328 0.2370662,-0.4571991 0.1523997,-0.1862663 0.3555993,-0.2709328 0.20319956,-0.084666 0.38946586,-0.084666 h 0.3217327 q 0.2201329,0 0.3725326,-0.0508 0.169333,-0.067733 0.507999,-0.084666 Q 2.8617277,2.0658629 2.9463942,1.9811964 3.047994,1.8965299 3.1495938,1.4901307 3.2511936,1.0667982 3.4543932,0.72813218 q 0.2201329,-0.338666 0.4233325,-0.338666 0.2031996,0 0.338666,0.1354664 0.1354664,0.1185331 0.1523997,0.3217327 0.033867,0.18626632 0.033867,0.67733202 0,0.4741324 0.1523997,0.4741324 0.1523997,-0.016933 0.677332,-0.016933 0.2878661,0 0.3894659,0.1015998 0.1185331,0.1015998 0.1185331,0.3555993 0,1.1006645 -1.3377307,1.1006645 -0.1862663,0 -0.2539995,0.2201329 -0.067733,0.2031996 -0.067733,1.0667979 0,0.2031996 0.0508,0.2709328 0.067733,0.0508 0.3555993,0.016933 0.2878661,-0.033867 0.6942653,-0.033867 0.4063992,0 0.4063992,0.3217327 0,0.3047994 -0.2370662,0.7789318 Q 5.1138566,6.6547872 4.402658,6.7394537 4.2163917,6.756387 4.1486585,6.8241202 4.0809253,6.8918534 4.0809253,7.0611864 l 0.1185331,2.9294609 q 0,0.5926657 -0.1185331,0.8297317 -0.1015998,0.237066 -0.3894659,0.457199 -0.2878661,0.237066 -0.7281319,0.237066 -0.4233325,0 -1.3885306,-0.304799 -0.94826476,-0.321733 -1.11759776,-0.457199 -0.1523997,-0.135467 -0.1523997,-0.270933 0,-0.254 0.3217327,-0.254 0.0846665,0 0.2878661,0.0508 0.22013286,0.0508 0.44026576,0.0508 0.2201329,0 0.6265321,-0.118533 0.4233325,-0.135466 0.5418656,-0.2709326 0.1185331,-0.1523997 0.169333,-0.5249323 0.0508,-0.3894659 0.1015998,-1.2361309 0.0508,-0.8635983 0.0508,-1.1006645 0,-0.2370662 -0.169333,-0.2370662 -0.1523997,0 -1.6594634,0.6603987 Q 0.57573224,7.6877185 0.33866604,7.6877185 3.7074089e-8,7.6877185 3.7074089e-8,7.3998524 3.7074089e-8,7.095053 0.18626634,6.6547872 0.37253264,6.1975881 0.77893184,5.9943885 1.2022643,5.7742556 2.031996,5.7065224 2.1674624,5.6895891 2.4722618,5.5879893 2.7770612,5.4694562 2.8447944,5.3001232 2.9125276,5.1138569 2.9125276,4.8259908 Z"
       style="font-style:normal;font-variant:normal;font-weight:normal;font-stretch:normal;font-size:16.9333px;font-family:STLiti;-inkscape-font-specification:STLiti;stroke-width:0.264583"
       id="path839" />
    <path
       d="m 31.800705,1.0498649 q 0,0.2878661 -0.491066,1.1006645 -0.474132,0.7958651 -1.269997,0.7958651 -0.4064,0 -0.880532,-0.2370662 -1.320797,-0.6265321 -4.013192,-0.6265321 -0.270933,0 -0.338666,0.084666 -0.06773,0.067733 -0.06773,0.3217327 0,0.2370662 0.135466,0.2709328 0.1524,0.033867 1.032931,0.033867 0.880532,0 2.04893,0.1862663 1.185331,0.169333 1.930396,0.4063992 0.745065,0.2201329 0.897465,0.338666 0.1524,0.1015998 0.1524,0.2709328 0,0.1523997 -0.220133,0.8635983 -0.2032,0.7111986 -0.609599,0.9482648 -0.406399,0.2201329 -0.541866,0.2201329 -0.135466,0 -0.135466,-0.2201329 0,-0.2201329 0.08467,-0.5926655 0.08467,-0.3725326 0.08467,-0.5587989 0,-0.2031996 -0.237066,-0.338666 -0.220133,-0.1354664 -0.728132,-0.2031996 -0.491066,-0.084666 -0.778932,-0.084666 -0.270933,0 -0.575732,0.2709328 -0.3048,0.2709328 -0.626532,0.5249323 -0.3048,0.2370662 -0.3048,0.507999 0,0.067733 0.01693,0.1523997 0.03387,0.067733 0.778931,0.7958651 0.745066,0.7281319 1.134531,1.0329313 0.4064,0.3047994 0.4064,0.5757322 0,0.2709328 -0.338666,0.6095988 -0.338666,0.338666 -0.711199,0.338666 -0.372533,0 -0.541866,-0.1015998 -0.389465,-0.2201329 -0.795865,-0.2201329 -1.219197,0 -1.38853,0.067733 -0.169333,0.067733 -0.118533,0.5587989 0.135466,1.5409307 0.135466,2.2859957 0,0.761998 -0.2032,0.931331 -0.186266,0.186267 -0.491065,0.186267 -0.3048,0 -0.491066,-0.270933 -0.169333,-0.270933 -0.169333,-0.524933 0,-0.253999 0.01693,-0.355599 0.135467,-0.948265 0.135467,-2.269062 0,-0.3894659 -0.270933,-0.3894659 -0.270933,0 -0.931332,0.1354664 -0.643465,0.1185331 -1.066797,0.2709328 -0.4064,0.1354664 -0.829732,0.1354664 -0.423333,0 -0.677332,-0.1523997 -0.237066,-0.1523997 -0.237066,-0.4402658 0,-0.3047994 0.321732,-0.6265321 0.338666,-0.3217327 0.863599,-0.3217327 0.524932,0 1.320797,-0.4402658 0.812798,-0.4571991 0.812798,-0.6265321 0,-0.169333 -0.270932,-0.1523997 -1.049865,0.1015998 -1.168398,0.1015998 -0.491066,0 -0.931332,-0.2370662 -0.440265,-0.2370662 -0.440265,-0.6434654 0,-0.1523997 0.08467,-0.2709328 0.08467,-0.1185331 0.169333,-0.1523997 0.1016,-0.033867 0.457199,-0.033867 0.372533,0 0.897465,-0.2201329 0.541866,-0.2370662 0.914398,-0.5757322 0.372533,-0.3555993 0.372533,-0.4402658 0,-0.1015998 -0.135466,-0.1015998 -0.237067,0 -1.490131,0.3217327 -1.236131,0.3217327 -1.574797,0.677332 -0.321732,0.3555993 -0.440266,0.7450652 -0.101599,0.3894659 -0.575732,0.6434654 -0.457199,0.2539995 -0.677332,0.2539995 -0.203199,0 -0.169333,-0.3555993 0.03387,-0.3555993 0.03387,-0.7111986 0,-0.3555993 -0.0508,-0.6265321 -0.03387,-0.2709328 -0.03387,-0.3047994 0,-0.3894659 0.423333,-0.6265321 0.440266,-0.2370662 0.761998,-0.1862663 0.1524,0.016933 0.254,0.016933 0.389466,0 1.134531,-0.3555993 0.1524,-0.067733 0.829732,-0.2031996 0.677332,-0.1354664 1.405464,-0.2201329 0.321732,-0.0508 0.423332,-0.1523997 0.1016,-0.1185331 0.1016,-0.3725326 0,-0.2539995 -0.06773,-0.3047994 -0.0508,-0.067733 -0.220133,-0.067733 -0.778932,0 -1.99813,0.4910657 -0.474132,0.1862663 -1.557863,0.4402658 -1.066798,0.2539995 -1.557864,0.2539995 -0.711198,0 -0.711198,-0.5418656 0,-0.2539995 0.08467,-0.4233325 0.08467,-0.169333 0.2032,-0.169333 0.135466,0 0.186266,0.0508 0.06773,0.0508 0.169333,0.0508 0.270933,0 0.711199,-0.2370662 0.457199,-0.2539995 1.676396,-0.4741324 1.236131,-0.2201329 2.777061,-0.3217327 0.321733,-0.033867 0.423333,-0.1185331 0.118533,-0.084666 0.169333,-0.30479942 Q 23.842054,2.8216839e-7 24.045253,2.8216839e-7 q 0.1016,0 0.287867,0.18626629783161 0.203199,0.1862663 0.270932,0.4910657 0.06773,0.2878661 0.186267,0.37253262 0.118533,0.084666 0.558799,0.084666 0.440265,-0.016933 0.914398,-0.016933 2.133596,0 2.810928,0.2201329 0.203199,0.067733 0.491065,0.067733 0.287866,0 0.541866,-0.1185331 0.270933,-0.1185331 0.745065,-0.1185331 0.491066,0 0.643465,-0.1015998 0.1524,-0.11853312 0.220133,-0.11853312 0.08467,0 0.08467,0.10159982 z m -7.806251,4.4365246 q 0.457199,0 0.812798,-0.338666 0.355599,-0.338666 0.694265,-0.6942653 0.3556,-0.3725326 0.3556,-0.4910657 0,-0.2031996 -0.609599,-0.2031996 -0.372533,0 -0.592666,0.2709328 -0.372532,0.3725326 -0.965198,0.8805316 -0.169333,0.1354664 -0.169333,0.3047994 0,0.2709328 0.474133,0.2709328 z m 2.082795,1.7610632 q 0,-0.1185331 -0.270932,-0.5418656 -0.270933,-0.4402658 -0.507999,-0.4402658 -0.220133,0 -0.3556,0.1185331 -0.609598,0.5418656 -1.151464,0.9821314 -0.118533,0.084666 -0.118533,0.169333 0,0.084666 0.169333,0.084666 0.169333,0 1.100664,-0.084666 0.931332,-0.1015998 1.032932,-0.1354664 0.101599,-0.0508 0.101599,-0.1523997 z m 3.809993,2.6246615 q 0,0.2031998 -0.491066,1.0667978 -0.474132,0.863598 -1.219197,0.863598 -0.575733,0 -1.608664,-0.728132 -1.032931,-0.745065 -1.032931,-1.2361304 0,-0.2031996 0.118533,-0.338666 0.135466,-0.1523997 0.253999,-0.1523997 0.118534,0 0.186267,0.033867 0.287866,0.1523997 0.609599,0.1354664 0.321732,-0.016933 0.338666,-0.016933 0.999064,0 1.896529,0.3047994 0.186266,0.067733 0.355599,0.067733 0.186267,0 0.321733,-0.033867 0.135467,-0.0508 0.2032,-0.0508 0.06773,0 0.06773,0.084667 z m -6.790253,-0.033867 q 0,0.3047994 -0.474133,0.9143984 -0.457199,0.609599 -1.151464,0.812798 -0.677332,0.220133 -1.100665,0.220133 -0.406399,0 -0.558799,-0.135466 -0.135466,-0.135467 -0.372532,-0.491066 -0.220133,-0.355599 -0.220133,-0.592666 0,-0.237066 0.338666,-0.253999 0.338666,-0.03387 1.354664,-0.287866 1.015998,-0.2539996 1.354664,-0.389466 0.338666,-0.1354664 0.457199,-0.1354664 0.372533,0 0.372533,0.338666 z"
       style="font-style:normal;font-variant:normal;font-weight:normal;font-stretch:normal;font-size:16.9333px;font-family:STLiti;-inkscape-font-specification:STLiti;stroke-width:0.264583"
       id="path841" />
    <path
       d="m 42.858117,7.6707852 q 0,0.2031996 0.06773,0.2539995 0.08467,0.0508 0.372532,0.084667 1.574797,0.1523997 1.99813,0.2709328 0.423332,0.1185331 0.626532,0.1185331 0.203199,0 0.304799,-0.016933 0.931332,-0.1862663 1.388531,-0.1862663 0.457199,0 0.694265,-0.1354664 0.08467,-0.0508 0.135466,-0.0508 0.06773,0 0.06773,0.084666 0,0.2031996 -0.440266,0.9313315 -0.423333,0.7111986 -0.761999,1.0329308 -0.338666,0.321733 -0.795865,0.321733 -0.457199,0 -1.354664,-0.4910655 -0.423332,-0.2201329 -1.117598,-0.3725326 -0.677332,-0.1523997 -0.880531,-0.1523997 -0.186267,0 -0.254,0.1354664 -0.0508,0.1185331 -0.0508,0.4741324 0,1.151464 -0.253999,1.625597 -0.237066,0.491065 -0.914398,0.491065 -0.2032,0 -0.287866,-0.220132 -0.08467,-0.220133 -0.08467,-0.880532 l 0.03387,-1.2191976 q 0,-0.2878661 -0.08467,-0.3725326 -0.06773,-0.1015998 -0.321733,-0.1015998 -0.643465,0 -1.219197,0.169333 -0.169333,0.0508 -1.219198,0.2539995 -1.032931,0.1862663 -1.236131,0.1862663 -0.186266,0 -0.253999,-0.0508 -0.06773,-0.067733 -0.1524,-0.2878661 -0.06773,-0.2201329 -0.06773,-0.4741324 0,-0.2709328 0.220133,-0.4233325 0.220133,-0.169333 0.423332,-0.1354664 0.220133,0.016933 0.372533,0.016933 0.1524,0 0.355599,-0.1015998 0.694266,-0.3894659 2.641595,-0.4571991 0.304799,-0.016933 0.457199,-0.0508 0.169333,-0.0508 0.220133,-0.1185331 0.06773,-0.084666 0.08467,-0.4233325 0.03387,-0.338666 0.03387,-0.4233325 0,-0.1015998 -0.06773,-0.1523997 -0.0508,-0.0508 -0.237066,-0.0508 -0.999065,0 -2.031996,0.2878661 -1.032932,0.2709328 -1.320798,0.2709328 -0.287866,0 -0.507999,-0.2539995 -0.220133,-0.2709328 -0.220133,-0.4741324 0,-0.2201329 0.118534,-0.3725326 0.135466,-0.169333 0.304799,-0.2031996 0.592665,-0.084666 0.982131,-0.5418656 0.389466,-0.4571991 0.389466,-0.6434654 0,-0.1862663 -0.220133,-0.1862663 l -0.321732,0.016933 q -0.423333,0 -0.660399,-0.1862663 -0.220133,-0.1862663 -0.220133,-0.4910657 0,-0.6265321 0.355599,-0.5418656 0.1016,0.033867 0.220133,0.033867 0.135467,0 0.406399,-0.1185331 0.270933,-0.1185331 0.541866,-0.1354664 0.270933,-0.033867 0.558799,-0.3725326 0.287866,-0.338666 0.287866,-0.4910657 0,-0.1523997 -0.338666,-0.1523997 -0.338666,0 -1.219198,0.1185331 -0.880531,0.1185331 -1.083731,0.3047994 -0.203199,0.1862663 -0.237066,0.3725326 -0.01693,0.169333 -0.169333,0.5249323 -0.135466,0.338666 -0.304799,1.4054639 -0.169333,1.0498646 -0.169333,1.2361309 -0.03387,1.3715973 -0.135467,2.0658626 -0.08467,0.677332 -0.389466,1.4562638 -0.304799,0.7619988 -0.846665,1.2022638 -0.524932,0.440266 -0.812798,0.440266 -0.474132,0 -0.474132,-1.219197 0,-0.5079993 0.03387,-0.6434657 0.03387,-0.1523997 0.1524,-0.1862663 0.253999,-0.067733 0.389466,-0.2370662 0.152399,-0.1862663 0.474132,-0.7958651 0.338666,-0.6265321 0.541866,-1.3207974 0.220133,-0.7111986 0.389466,-1.7610632 0.169333,-1.0498646 0.169333,-1.5070637 0,-0.9651981 -0.609599,-1.0498646 -0.389466,-0.0508 -0.389466,-0.3555993 0,-0.1015998 0.08467,-0.2709328 0.08467,-0.169333 0.287867,-0.169333 l 0.321732,0.033867 q 0.169333,0 0.507999,-0.067733 1.625597,-0.338666 3.759193,-0.4571991 0.372532,-0.016933 0.541865,-0.1523997 0.186267,-0.1354664 0.287867,-0.54186562 0.118533,-0.4063992 0.270932,-0.4910657 0.169333,-0.1015998 0.321733,-0.1015998 0.1524,0 0.609599,0.3047994 0.457199,0.3047994 0.575732,0.67733202 0.03387,0.1015998 0.169333,0.1862663 0.1524,0.067733 0.287866,0.084666 1.049865,0.0508 2.150529,0.1862663 1.100665,0.1354664 1.337731,0.2031996 0.253999,0.067733 0.491066,0.1185331 0.253999,0.0508 0.507999,0.0508 0.253999,0 0.253999,0.1862663 0,0.169333 -0.321733,0.3725326 -0.304799,0.1862663 -0.880531,0.1862663 -0.558799,0 -1.761063,-0.2201329 -1.185331,-0.2370662 -3.031061,-0.2370662 -0.677332,0 -0.812798,0.0508 -0.118534,0.033867 -0.186267,0.2539995 -0.0508,0.2201329 -0.0508,0.4063992 0,0.169333 0.08467,0.2201329 0.1016,0.0508 0.829732,0.0508 0.745065,0 2.302928,0.067733 1.574797,0.0508 2.150529,0.1523997 0.592666,0.1015998 0.728132,0.169333 0.135467,0.0508 0.135467,0.2031996 0,0.4571991 -0.745065,0.6095988 -0.745066,0.1523997 -1.74413,0.067733 -0.999065,-0.084666 -1.303864,-0.084666 -0.3048,0 -0.287867,0.3555993 0.01693,0.084666 0.01693,0.4233325 0.01693,0.338666 0.0508,0.4402658 0.03387,0.1015998 0.118533,0.1354664 0.1016,0.016933 0.660398,0.016933 h 1.202265 q 1.032931,0 1.219197,0.084666 0.186267,0.067733 0.270933,0.067733 h 0.1524 q 0.1016,0 0.169333,0.1185331 0.08467,0.1185331 0.08467,0.3047994 0,0.3555993 -0.372532,0.5418656 -0.372533,0.169333 -0.812799,0.169333 -0.423332,0 -1.219197,-0.0508 -0.795865,-0.067733 -1.066798,-0.067733 -0.254,0 -0.338666,0.0508 -0.08467,0.0508 -0.08467,0.2709328 z M 40.030256,5.7742556 h 0.06773 q 0.270933,-0.033867 0.795866,-0.0508 0.524932,-0.033867 0.677332,-0.084666 0.152399,-0.067733 0.203199,-0.169333 0.0508,-0.1185331 0.1016,-0.4402658 l 0.08467,-0.5249323 q 0,-0.2031996 -0.338666,-0.2031996 -0.338666,0 -0.795865,0.033867 -0.457199,0.016933 -0.541865,0.067733 -0.06773,0.033867 -0.135467,0.1354664 -0.06773,0.084666 -0.186266,0.338666 -0.1016,0.2370662 -0.169333,0.3555993 -0.06773,0.1185331 -0.06773,0.2539995 0,0.2878661 0.304799,0.2878661 z"
       style="font-style:normal;font-variant:normal;font-weight:normal;font-stretch:normal;font-size:16.9333px;font-family:STLiti;-inkscape-font-specification:STLiti;stroke-width:0.264583"
       id="path843" />
  </g>
</svg>
