<?xml version="1.0" encoding="UTF-8" standalone="no"?>
<svg
   xmlns:dc="http://purl.org/dc/elements/1.1/"
   xmlns:cc="http://creativecommons.org/ns#"
   xmlns:rdf="http://www.w3.org/1999/02/22-rdf-syntax-ns#"
   xmlns:svg="http://www.w3.org/2000/svg"
   xmlns="http://www.w3.org/2000/svg"
   width="48.209042mm"
   height="12.361309mm"
   viewBox="0 0 48.209041 12.361309"
   version="1.1"
   id="svg8">
  <defs
     id="defs2" />
  <metadata
     id="metadata5">
    <rdf:RDF>
      <cc:Work
         rdf:about="">
        <dc:format>image/svg+xml</dc:format>
        <dc:type
           rdf:resource="http://purl.org/dc/dcmitype/StillImage" />
        <dc:title></dc:title>
      </cc:Work>
    </rdf:RDF>
  </metadata>
  <g
     aria-label="中成药"
     id="text838"
     style="font-size:10.5833px;line-height:1.25;font-family:'Source Code Variable';-inkscape-font-specification:'Source Code Variable';stroke-width:0.264583">
    <path
       d="m 13.580507,1.7779969 q 0.203199,0 0.389466,0.1185331 0.203199,0.1185331 0.203199,0.338666 0,0.4233325 -0.643465,1.1345311 -0.270933,0.2709328 -0.643466,1.1006645 -0.372532,0.8127984 -0.372532,1.0498646 0,0.2370662 0.08467,0.4063992 0.08467,0.169333 0.08467,0.3217327 0,0.1354664 -0.186267,0.3217327 -0.169333,0.169333 -0.575732,0.169333 -0.406399,0 -1.015998,-0.084666 -0.592665,-0.1015998 -1.6255966,-0.1015998 -1.0329313,0 -1.2361309,0.016933 Q 7.8401179,6.5870541 7.7215848,6.7394538 7.619985,6.8749202 7.619985,7.1289197 l 0.016933,1.8795963 q 0,2.285996 -0.1015998,2.523062 -0.084666,0.253999 -0.4063992,0.406399 -0.3217327,0.169333 -0.5418656,0.169333 -0.2201329,0 -0.2878661,-0.1524 -0.067733,-0.135466 -0.067733,-0.829731 0,-0.711199 0.0508,-2.0150632 l 0.084666,-2.0827959 q 0,-0.3725326 -0.4063992,-0.3725326 -0.5757322,0 -2.3367954,0.3217327 Q 1.8795963,7.2982527 0.52493229,8.0433179 0.37253259,8.1279844 0.25399949,8.1279844 -1.335144e-8,8.1279844 -1.335144e-8,7.823185 -1.335144e-8,7.5183856 0.23706619,7.0950531 0.49106569,6.6547873 0.84666499,6.3838545 1.2191976,6.1129217 1.3885306,5.5202562 1.5578636,4.9106574 1.5578636,4.4873249 1.5578636,3.6575932 1.015998,3.420527 0.49106569,3.1834608 0.28786609,2.9463946 0.08466649,2.6923951 0.08466649,2.4891955 q 0,-0.2201329 0.1185331,-0.2709328 Q 0.33866599,2.1505295 0.96519809,2.065863 1.6086635,1.9811965 2.1166625,1.89653 3.9793255,1.4901308 5.9435883,1.3546644 6.3838541,1.3207978 6.5023872,0.96519854 q 0.169333,-0.5926655 0.507999,-0.5926655 0.3725326,0 0.6265321,0.6265321 0.067733,0.18626626 0.1862663,0.23706616 0.1354664,0.0508 0.5249323,0.0508 2.0150631,0 3.1157271,0.3217327 1.100665,0.3217327 1.405464,0.3217327 0.304799,0 0.440266,-0.067733 0.135466,-0.084666 0.270933,-0.084666 z m -2.607729,3.4374599 q 0.270933,0 0.372533,-0.169333 0.1016,-0.1862663 0.372533,-0.7789318 0.270932,-0.6095988 0.270932,-0.8974649 0,-0.2878661 -0.220133,-0.4233325 -0.220132,-0.1354664 -1.23613,-0.2031996 -1.0159984,-0.084666 -1.7102637,-0.084666 -0.677332,0 -0.8297317,0.016933 -0.1354664,0 -0.2370662,0.1015998 -0.084666,0.084666 -0.1185331,0.2878661 -0.016933,0.2031996 -0.016933,1.523997 0,0.338666 0.1354664,0.4233325 0.1354664,0.084666 0.338666,0.067733 0.2201329,-0.016933 0.7958651,-0.016933 0.5757322,0 1.1683975,0.067733 z M 2.8447944,5.6387893 q 0.0508,0 0.1015998,-0.016933 1.3715973,-0.2878661 2.9802608,-0.4233325 0.1185331,0 0.3217327,-0.1015998 0.2031996,-0.1185331 0.2370662,-0.3725326 0.033867,-0.2539995 0.033867,-1.4223972 0,-0.2878661 -0.067733,-0.3894659 -0.067733,-0.1185331 -0.3047994,-0.1185331 -0.2370662,0 -0.9821314,0.1185331 Q 4.4365246,3.0141278 3.7930592,3.1495942 3.1665271,3.2850606 3.0310607,3.3697271 2.9125276,3.4374603 2.7939945,3.58986 2.6754614,3.7253264 2.6415948,3.8438595 q -0.033867,0.1015998 -0.033867,0.4741324 0,0.3555993 -0.067733,0.9482648 0,0.3725326 0.3047994,0.3725326 z"
       style="font-style:normal;font-variant:normal;font-weight:normal;font-stretch:normal;font-size:16.9333px;font-family:STLiti;-inkscape-font-specification:STLiti;stroke-width:0.264583"
       id="path832" />
    <path
       d="m 26.009516,8.66985 q -0.118533,-0.338666 -0.321732,-0.338666 -0.2032,0 -0.863599,0.9651981 -0.643465,0.9482649 -1.354664,1.7102629 -0.694265,0.745066 -0.812798,0.745066 -0.118533,0 -0.2032,-0.135467 -0.08467,-0.135466 -0.08467,-0.220133 0,-0.237066 0.829732,-1.710263 0.829731,-1.4731971 1.69333,-2.5230617 0.186266,-0.2370662 0.186266,-0.4063992 0,-0.169333 -0.135467,-0.4741324 -0.118533,-0.3217327 -0.389465,-0.3217327 -0.287867,0 -0.931332,0.677332 -0.643465,0.6603987 -1.083731,1.4223972 -0.812799,1.3715973 -1.253064,1.8795963 -0.423333,0.5079995 -0.609599,0.5079995 -0.186266,0 -0.186266,-0.220133 0,-0.2370666 0.270932,-0.9313319 0.287866,-0.6942653 1.456264,-2.4722618 0.237066,-0.3555993 0.237066,-0.4741324 0,-0.1354664 -0.118533,-0.1354664 -0.118533,0 -0.389466,0.067733 -0.253999,0.0508 -0.524932,0.0508 -0.711199,0 -0.711199,-0.6603987 0,-0.3725326 0.237067,-0.677332 0.237066,-0.3217327 0.524932,-0.3217327 0.1016,0 0.220133,0.067733 0.118533,0.0508 0.220133,0.0508 0.118533,0 0.287866,-0.084666 0.169333,-0.1015998 0.592665,-0.2370662 0.440266,-0.1523997 0.812799,-0.2201329 0.389466,-0.084666 0.389466,-0.2031996 0,-0.1185331 -0.135467,-0.4063992 -0.118533,-0.2878661 -0.287866,-0.2878661 -0.304799,0 -0.880531,0.1862663 -0.558799,0.169333 -1.134532,0.169333 -0.575732,0 -0.897464,-0.2201329 -0.321733,-0.2370662 -0.321733,-0.6603987 0,-0.4233325 0.203199,-0.6434654 0.220133,-0.2370662 0.507999,-0.2370662 0.118534,0 0.220133,0.067733 0.118533,0.0508 0.287866,0.0508 0.4064,0 0.965199,-0.2370662 0.558798,-0.2539995 0.491065,-0.6265321 -0.0508,-0.25399946 -0.0508,-0.47413236 0,-0.72813190512451 0.507999,-0.72813190512451 0.2032,0 0.3556,0.25399950512451 0.169333,0.2370662 0.423332,0.94826476 0.135467,0.4233325 0.575732,0.4233325 0.01693,0 0.491066,-0.016933 0.491066,-0.033867 0.812798,-0.0508 0.338666,-0.016933 0.389466,-0.033867 0.0508,-0.033867 0.118533,-0.1185331 0.08467,-0.084666 0.169333,-0.2539995 0.1016,-0.18626626 0.220133,-0.47413236 0.118533,-0.3047994 0.389466,-0.3047994 0.389466,0 0.541866,0.169333 0.169333,0.169333 0.321733,0.86359826 0.03387,0.169333 0.101599,0.2370662 0.08467,0.0508 0.778932,0.2031996 0.694265,0.1354664 0.982132,0.2878661 0.287866,0.1354664 0.287866,0.3217327 0,0.169333 -0.457199,0.507999 -0.440266,0.338666 -1.236131,0.338666 -0.237067,0 -0.592666,-0.0508 -0.338666,-0.0508 -1.38853,-0.0508 -1.032932,0 -1.388531,0.033867 -0.338666,0.033867 -0.338666,0.169333 0,0.1354664 0.135466,0.338666 0.1524,0.1862663 0.338666,0.2370662 0.423333,0.1015998 0.423333,0.4233325 0,0.1523997 -0.1016,0.3047994 -0.08467,0.1354664 -0.08467,0.2878661 0,0.1354664 0.169333,0.4741324 0.186266,0.338666 0.287866,0.338666 0.101599,0 0.203199,-0.084666 0.592666,-0.5249323 1.405464,-1.0498646 0.829732,-0.5418656 1.083731,-0.5418656 0.254,0 0.254,0.5418656 0,0.3894659 -0.237066,0.6265321 -0.237067,0.2201329 -1.083732,0.6942653 -0.152399,0.1015998 -0.491065,0.4233325 -0.338666,0.3047994 -0.423333,0.4233325 -0.06773,0.1015998 -0.06773,0.1862663 0,0.2878661 0.711199,1.2191976 0.711198,0.9143982 1.896529,1.7271966 1.202265,0.7958649 2.201329,0.7958649 0.186267,0 0.186267,0.06773 0,0.1524 -0.795866,0.829732 -0.795865,0.694265 -2.031996,0.694265 -0.745065,0 -1.117597,-0.220132 -0.3556,-0.2032 -0.677332,-0.643466 -0.3048,-0.440266 -0.694266,-1.473197 z M 19.20233,1.8287968 q 0.389466,0 0.660398,0.7281319 0.287867,0.7281319 0.287867,1.8118631 0,1.0837312 -0.423333,3.1326605 -0.406399,2.0489293 -1.083731,2.6415947 -0.660399,0.592666 -1.015998,0.592666 -0.338666,0 -0.524932,-0.321733 -0.186267,-0.338666 -0.186267,-0.897465 0,-0.5757322 0.135467,-0.6603987 0.08467,-0.0508 0.169333,-0.2878661 Q 17.3058,8.331184 17.339667,8.1279844 17.4074,7.653852 17.542866,7.653852 q 0.06773,0 0.1524,0.169333 0.08467,0.1523997 0.2032,0.1523997 0.135466,0 0.253999,-0.169333 0.135467,-0.1862663 0.406399,-0.8127984 0.270933,-0.6434654 0.4064,-1.523997 0.135466,-0.8805316 0.135466,-1.3715973 0,-0.507999 -0.1524,-0.9651981 -0.152399,-0.4741324 -0.152399,-0.7281319 0,-0.2709328 0.118533,-0.4233325 0.118533,-0.1523997 0.287866,-0.1523997 z"
       style="font-style:normal;font-variant:normal;font-weight:normal;font-stretch:normal;font-size:16.9333px;font-family:STLiti;-inkscape-font-specification:STLiti;stroke-width:0.264583"
       id="path834" />
    <path
       d="m 48.20904,1.9981298 q 0,0.4910657 -0.761998,1.1006645 -0.761999,0.6095988 -1.371598,0.6095988 -0.592665,0 -1.676396,-0.5757322 -0.863599,-0.4233325 -1.134531,-0.4233325 -0.1524,0 -0.4064,0.338666 -0.237066,0.3217327 -0.406399,0.4402658 -0.152399,0.1015998 -0.152399,0.1862663 0,0.067733 0.169333,0.2878661 0.186266,0.2201329 0.220132,0.3725326 0.0508,0.1354664 0.135467,0.169333 0.08467,0.033867 0.524932,0 0.440266,-0.033867 1.049865,-0.033867 1.320797,0 1.64253,0.169333 0.203199,0.1185331 0.321733,0.1185331 0.135466,0 0.220132,-0.0508 0.1016,-0.0508 0.254,-0.0508 0.169333,0 0.372533,0.1862663 0.203199,0.1862663 0.203199,0.4741324 0,0.2709328 -0.220133,0.4910657 -0.203199,0.2031996 -0.507999,1.185331 -0.287866,0.9821314 -0.355599,1.9811961 -0.06773,0.9990647 -0.287866,1.5070636 -0.220133,0.491066 -0.660399,0.914398 -0.440266,0.440266 -0.761998,0.592666 -0.321733,0.1524 -0.829732,0.1524 -0.507999,0 -1.371597,-0.1524 -0.846665,-0.135467 -1.134531,-0.270933 -0.270933,-0.135466 -0.423333,-0.440266 -0.135466,-0.304799 -0.135466,-0.626532 0,-0.118533 0.0508,-0.186266 0.06773,-0.08467 0.135466,-0.08467 0.08467,0 0.169333,0.169333 0.08467,0.169333 0.220133,0.169333 0.1524,0 0.287866,-0.01693 0.812798,-0.1016 1.777996,-0.1016 0.626533,0 1.049865,-0.389466 0.440266,-0.3894656 0.524932,-1.032931 0.254,-1.9303962 0.3556,-2.3367954 0.101599,-0.4063992 0.101599,-0.5418656 0,-0.1523997 -0.118533,-0.2201329 -0.118533,-0.067733 -0.541865,-0.1354664 -0.423333,-0.084666 -0.965198,-0.084666 -0.541866,0 -1.219198,0.067733 -0.660399,0.0508 -0.795865,0.084667 -0.118533,0.033867 -0.237066,0.1354664 -0.406399,0.2709328 -0.677332,0.2709328 -0.254,0 -0.372533,-0.084666 -0.1016,-0.084666 -0.1016,-0.2201329 0,-0.1523997 0.169333,-0.3217327 0.389466,-0.3894659 0.592666,-0.8297317 0.321733,-0.6942653 0.440266,-0.7789318 0.118533,-0.084666 0.118533,-0.2031996 0,-0.1354664 -0.186267,-0.1354664 -0.338666,0 -0.338666,-0.2709328 0,-0.1185331 0.186267,-0.4571991 0.186266,-0.338666 0.186266,-0.4741324 0,-0.1354664 -0.135466,-0.1354664 -0.118533,-0.016933 -0.863599,-0.016933 -0.728132,0 -0.965198,0.067733 -0.220133,0.067733 -0.253999,0.2709328 -0.01693,0.1862663 -0.2032,0.3894659 -0.169333,0.1862663 -0.203199,0.4402658 -0.03387,0.2539995 -0.186267,0.4233325 -0.152399,0.1523997 -0.524932,0.3894659 -0.355599,0.2370662 -1.015998,0.5587989 -0.08467,0.0508 -0.08467,0.1185331 0,0.067733 0.2032,0.1185331 0.2032,0.033867 0.457199,0.033867 0.270933,0 0.541866,-0.033867 0.270933,-0.0508 0.524932,-0.338666 0.254,-0.2878661 0.304799,-0.3725326 0.389466,-0.5249323 0.999065,-0.5249323 0.270933,0 0.389466,0.1354664 0.135466,0.1185331 0.135466,0.2709328 0,0.1523997 -0.609598,0.4910657 -0.897465,0.4910657 -1.303864,1.015998 -0.389466,0.507999 -1.151465,0.846665 -0.169333,0.067733 -0.169333,0.2031996 0,0.1354664 0.220133,0.1354664 0.1016,0 0.778932,-0.0508 0.677332,-0.0508 0.914398,-0.1015998 0.254,-0.0508 0.406399,-0.1523997 0.169333,-0.1185331 0.254,-0.1185331 0.1016,0 0.1016,0.1015998 0,0.2201329 -0.440266,0.7450652 -0.423333,0.5249323 -1.94733,0.7789318 -1.507063,0.2539995 -2.218262,0.4063992 -0.694265,0.1523997 -0.982131,0.1523997 -0.270933,0 -0.524933,-0.169333 -0.237066,-0.1862663 -0.237066,-0.4741324 0,-0.3047994 0.457199,-0.5757322 0.457199,-0.2878661 0.541866,-0.3047994 0.186266,-0.016933 0.999064,-0.4402658 0.829732,-0.4233325 0.829732,-0.5418656 0,-0.1354664 -0.812798,-0.2370662 -0.795865,-0.1015998 -0.982132,-0.1015998 -0.440265,0 -0.694265,-0.1862663 -0.253999,-0.1862663 -0.253999,-0.4233325 0,-0.2370662 0.287866,-0.507999 0.287866,-0.2709328 0.389466,-0.2709328 0.118533,0 0.270932,0.0508 0.169333,0.033867 0.372533,0.033867 0.2032,0 0.592665,-0.169333 0.4064,-0.169333 0.931332,-0.3047994 0.541866,-0.1354664 0.795865,-0.338666 0.254,-0.2201329 0.338666,-0.338666 0.08467,-0.1185331 0.08467,-0.3217327 0,-0.4233325 -0.254,-0.4233325 -0.135466,0 -0.728132,0.1862663 -0.592665,0.1862663 -1.456264,0.2878661 -0.846665,0.1015998 -1.117597,0.1015998 -0.254,0 -0.389466,-0.2031996 -0.135467,-0.2201329 -0.135467,-0.9143982 0,-0.3217327 0.1524,-0.4233325 0.1524,-0.1015998 0.253999,-0.1015998 0.1016,0 0.1524,0.1015998 0.0508,0.1015998 0.2032,0.1015998 0.152399,0 0.321732,-0.0508 0.999065,-0.2709328 2.353729,-0.4063992 0.254,-0.033867 0.355599,-0.1185331 0.1016,-0.084666 0.135467,-0.2878661 0.1524,-0.76199846 0.575732,-0.76199846 0.2032,0 0.491066,0.2878661 0.304799,0.2878661 0.389466,0.47413236 0.101599,0.169333 0.169333,0.2031996 0.06773,0.033867 0.186266,0.033867 l 0.999065,-0.016933 1.185331,0.016933 q 0.135466,0 0.304799,-0.067733 0.169333,-0.084666 0.220133,-0.169333 0.253999,-0.49106566 0.474132,-0.59266546 0.237067,-0.1185331 0.558799,-0.1185331 0.541866,0 0.541866,0.5249323 0,0.0846665 -0.03387,0.25399946 -0.03387,0.169333 -0.03387,0.2539995 0,0.084666 0.237066,0.1185331 1.371597,0.169333 1.74413,0.3047994 0.389466,0.1185331 0.660398,0.067733 0.270933,-0.0508 0.491066,-0.0508 0.220133,0 0.423333,0.067733 0.203199,0.0508 0.287866,0.0508 0.08467,0 0.203199,-0.1015998 0.135467,-0.1185331 0.220133,-0.1185331 0.169333,0 0.169333,0.2201329 z m -3.928525,5.249323 h 0.06773 q 0.08467,0 0.08467,0.1523997 0,0.1523997 -0.186266,0.4233325 -0.169333,0.2539995 -0.491066,0.3555993 -0.321732,0.1015998 -1.253064,0.1862663 -0.914398,0.084667 -1.185331,0.084667 -0.541865,0 -0.677332,-0.3047994 -0.135466,-0.3047994 -0.135466,-0.5249323 0,-0.2370662 0.152399,-0.3725326 0.1524,-0.1523997 0.3048,-0.1523997 0.169333,0 0.237066,0.033867 0.06773,0.016933 0.1524,0.016933 0.08467,0 0.220133,-0.033867 0.711198,-0.2031996 1.269997,-0.2031996 0.575732,0 0.948265,0.169333 0.372533,0.169333 0.491066,0.169333 z M 39.74239,9.0931825 q 0,0.1523997 -0.253999,0.5757322 -0.237066,0.4063993 -0.829732,0.6434653 -0.575732,0.237066 -1.523997,0.372533 -0.948265,0.135466 -1.625597,0.304799 -0.660398,0.1524 -0.965198,0.270933 -0.287866,0.118533 -0.558799,0.118533 -0.711198,0 -0.711198,-0.914398 0,-0.389466 0.169333,-0.609599 0.169333,-0.2201329 0.372532,-0.2201329 0.2032,0 0.3048,0.033867 0.101599,0.033867 0.220133,0.033867 0.118533,0 0.338666,-0.033867 2.658528,-0.5418656 3.03106,-0.5418656 0.372533,0 0.609599,0.033867 0.254,0.033867 0.491066,0.033867 0.237066,0 0.491065,-0.1015998 0.254,-0.1185331 0.338666,-0.1185331 0.1016,0 0.1016,0.1185331 z"
       style="font-style:normal;font-variant:normal;font-weight:normal;font-stretch:normal;font-size:16.9333px;font-family:STLiti;-inkscape-font-specification:STLiti;stroke-width:0.264583"
       id="path836" />
  </g>
</svg>
