<?xml version="1.0" encoding="UTF-8" standalone="no"?>
<svg
   xmlns:dc="http://purl.org/dc/elements/1.1/"
   xmlns:cc="http://creativecommons.org/ns#"
   xmlns:rdf="http://www.w3.org/1999/02/22-rdf-syntax-ns#"
   xmlns:svg="http://www.w3.org/2000/svg"
   xmlns="http://www.w3.org/2000/svg"
   width="65.955109mm"
   height="12.547575mm"
   viewBox="0 0 65.955108 12.547575"
   version="1.1"
   id="svg8">
  <defs
     id="defs2" />
  <metadata
     id="metadata5">
    <rdf:RDF>
      <cc:Work
         rdf:about="">
        <dc:format>image/svg+xml</dc:format>
        <dc:type
           rdf:resource="http://purl.org/dc/dcmitype/StillImage" />
        <dc:title></dc:title>
      </cc:Work>
    </rdf:RDF>
  </metadata>
  <g
     aria-label="搜索系统"
     id="text838"
     style="font-size:16.9333px;line-height:1.25;font-family:'Source Code Variable';-inkscape-font-specification:'Source Code Variable';stroke-width:0.264583">
    <path
       d="m 14.731971,10.21078 h 0.237066 q 0.186267,0 0.186267,0.1016 0,0.203199 -0.795866,0.982131 -0.795865,0.778932 -1.28693,0.778932 -0.474133,0 -0.965198,-0.304799 Q 11.616244,11.480778 10.938912,10.871179 10.26158,10.244647 10.092247,10.126114 9.9229138,9.9906471 9.8382473,9.9906471 q -0.084667,0 -0.2370662,0.084667 -0.7958651,0.507999 -1.6594634,0.948264 -0.846665,0.440266 -1.1514644,0.524933 -0.2878661,0.1016 -0.507999,0.1016 -0.4910657,0 -1.0329313,-0.440266 -0.5249323,-0.457199 -0.5249323,-0.745065 0,-0.287867 0.3217327,-0.287867 0.067733,0 0.1862663,0.03387 0.1354664,0.03387 0.5249323,0.03387 0.3894659,0 1.0498646,-0.1016 Q 7.4675853,10.024514 8.0433175,9.702781 8.635983,9.364115 8.7375828,9.3133151 8.8561159,9.2455819 8.8561159,9.1101155 8.8561159,8.9746491 8.1957172,8.51745 7.5522518,8.0602509 6.8749198,7.9925177 6.1637212,7.9417178 6.1637212,7.5861185 q 0,-0.1354664 0.1523997,-0.338666 0.169333,-0.2031996 0.677332,-0.2031996 0.1523997,0 0.3047994,0.016933 0.169333,0.016933 0.338666,0.016933 0.169333,0 0.7450652,-0.1354664 0.5757322,-0.1523997 0.7450652,-0.1862663 0.1862663,-0.033867 0.2370662,-0.1523997 0.067733,-0.1354664 0.067733,-0.4063992 0,-0.2878661 -0.1015998,-0.2878661 -0.084666,0 -0.1523997,0.016933 -0.677332,0.1354664 -1.2530642,0.1354664 -0.5587989,0 -0.677332,0.0508 -0.1185331,0.033867 -0.2201329,0.1523997 -0.2709328,0.3217327 -0.4910657,0.3217327 -0.2201329,0 -0.3725326,-0.1185331 -0.1523997,-0.1354664 -0.1523997,-0.2709328 0,-0.1354664 0.1015998,-0.3047994 0.1015998,-0.169333 0.169333,-0.4910657 0.084666,-0.338666 0.067733,-0.4910657 -0.016933,-0.1523997 -0.016933,-0.4063992 l 0.0508,-1.0837312 q 0,-0.7111986 -0.1862663,-1.2022643 -0.084666,-0.2370662 -0.084666,-0.3725326 0,-0.3555993 0.6942653,-0.3047994 0.2031996,0.016933 0.3555993,0.016933 0.169333,0 0.6942653,-0.169333 0.5249323,-0.1862663 0.7281319,-0.1862663 0.2031996,0 0.3047994,0.2201329 0.1015998,0.2201329 0.1015998,0.3894659 0,0.5418656 -1.2022643,0.5418656 -0.2539995,0 -0.3217327,0.1354664 -0.067733,0.1185331 -0.067733,0.5249323 0,0.2370662 0.1185331,0.2370662 0.1185331,0 0.4233325,-0.067733 0.3047994,-0.084666 0.4910657,-0.084666 0.1862663,0 0.3047994,0.1185331 0.1354664,0.1015998 0.1354664,0.338666 0,0.2370662 -0.2539995,0.4063992 Q 8.3819835,4.114792 8.0263842,4.114792 L 7.5691851,4.0978587 q -0.1523997,0 -0.2031996,0.067733 -0.0508,0.0508 -0.0508,0.3047994 0,0.2539995 0.0508,0.3555993 0.067733,0.084666 0.2878661,0.0508 Q 8.635983,4.7074575 9.2455818,4.6566576 9.4318481,4.6397243 9.482648,4.3179916 9.5503812,3.9962589 9.5503812,2.8447945 l -0.0508,-1.2699975 q 0,-0.5587989 0.3217327,-0.96519808 0.321733,-0.4063992 0.507999,-0.4063992 0.2032,0 0.304799,0.1862663 0.118534,0.1862663 0.118534,0.507999 0,1.20226428 -0.1524,1.93039618 -0.169333,1.0667979 -0.169333,1.4562638 0,0.3555993 0.203199,0.4063992 0.2032,0.033867 0.846665,0.033867 0.660399,-0.016933 0.829732,-0.0508 0.186266,-0.0508 0.254,-0.2031996 0.08467,-0.169333 0.08467,-0.338666 0,-0.169333 -0.186266,-0.169333 -0.389466,0 -0.711199,0.033867 -0.321732,0.016933 -0.338666,0.016933 -0.457199,0 -0.457199,-0.3555993 0,-0.1523997 0.169333,-0.338666 0.169333,-0.2031996 0.270933,-0.2201329 0.1016,-0.016933 0.609599,-0.016933 0.507999,0 0.728132,-0.084666 0.220133,-0.084666 0.220133,-0.3725326 0,-0.3047994 -0.237067,-0.3047994 -0.220133,0 -0.592665,0.084666 -0.355599,0.067733 -0.558799,0.067733 -0.524932,0 -0.524932,-0.3555993 0,-0.169333 0.169333,-0.4741324 0.169333,-0.3217327 0.372532,-0.3217327 0.2032,0 0.474133,0.067733 0.287866,0.067733 0.728132,0.067733 0.457199,0 0.829731,-0.084666 0.372533,-0.084666 0.474133,-0.084666 0.372532,0 0.372532,0.5249323 0,0.1523997 -0.152399,0.3047994 -0.135467,0.1354664 -0.237067,0.4233325 -0.101599,0.2709328 -0.355599,1.3377307 -0.253999,1.0498646 -0.372533,1.69333 -0.03387,0.1354664 -0.186266,0.2201329 -0.1524,0.084666 -0.304799,0.084666 -0.1524,0 -0.575732,-0.1354664 -0.4064,-0.1354664 -1.049865,-0.1354664 -0.643465,0 -0.795865,0.1015998 -0.135467,0.1015998 -0.135467,0.4402658 0,0.3217327 0.0508,0.4063992 0.06773,0.084666 0.220133,0.084666 l 0.474133,0.016933 q 0.355599,0 0.728132,-0.067733 0.389465,-0.084666 0.660398,-0.084666 0.287866,0 0.558799,0.2201329 0.270933,0.2201329 0.270933,0.3725326 0,0.1354664 -0.1016,0.2201329 -0.08467,0.067733 -0.253999,0.084666 -0.1524,0 -0.3048,0 -0.135466,0 -0.287866,0.1015998 -0.135466,0.084667 -0.406399,0.3894659 -0.270933,0.2878661 -0.541866,0.6434654 -0.270932,0.3555993 -0.270932,0.4402658 0,0.084666 0.06773,0.1354664 0.06773,0.0508 1.236131,0.4571991 1.185331,0.4063992 1.59173,0.5249324 0.423332,0.118533 0.745065,0.118533 z M 10.566379,7.840118 q 0,-0.1354664 -0.135466,-0.1354664 -0.6603989,0 -0.9651983,0.0508 -0.2878661,0.033867 -0.2878661,0.169333 0,0.169333 0.2709328,0.4063992 0.2709328,0.2370662 0.4402658,0.2370662 0.1693328,0 0.4233328,-0.2709328 0.253999,-0.2709328 0.253999,-0.4571991 z M 2.9125276,3.945459 q 0,-0.338666 -0.169333,-0.338666 -0.2370662,0 -1.3207974,0.3217327 -0.42333251,0.1185331 -0.67733201,0.1185331 -0.507999,0 -0.507999,-0.4910657 0,-0.2539995 0.0846665,-0.507999 Q 0.40639919,2.7770613 0.55879889,2.590795 0.71119859,2.4045287 0.91439819,2.3198622 1.1175978,2.2351957 1.3038641,2.2351957 h 0.3217327 q 0.2201329,0 0.3725326,-0.0508 0.169333,-0.067733 0.507999,-0.084666 Q 2.8617277,2.0658627 2.9463942,1.9811962 3.047994,1.8965297 3.1495938,1.4901305 3.2511936,1.066798 3.4543932,0.72813202 q 0.2201329,-0.338666 0.4233325,-0.338666 0.2031996,0 0.338666,0.1354664 0.1354664,0.1185331 0.1523997,0.3217327 0.033867,0.18626628 0.033867,0.67733198 0,0.4741324 0.1523997,0.4741324 0.1523997,-0.016933 0.677332,-0.016933 0.2878661,0 0.3894659,0.1015998 0.1185331,0.1015998 0.1185331,0.3555993 0,1.1006645 -1.3377307,1.1006645 -0.1862663,0 -0.2539995,0.2201329 -0.067733,0.2031996 -0.067733,1.0667979 0,0.2031996 0.0508,0.2709328 0.067733,0.0508 0.3555993,0.016933 0.2878661,-0.033867 0.6942653,-0.033867 0.4063992,0 0.4063992,0.3217327 0,0.3047994 -0.2370662,0.7789318 Q 5.1138566,6.654787 4.402658,6.7394535 4.2163917,6.7563868 4.1486585,6.82412 4.0809253,6.8918532 4.0809253,7.0611862 l 0.1185331,2.9294609 q 0,0.5926659 -0.1185331,0.8297319 -0.1015998,0.237066 -0.3894659,0.457199 -0.2878661,0.237066 -0.7281319,0.237066 -0.4233325,0 -1.3885306,-0.304799 -0.94826481,-0.321733 -1.11759781,-0.457199 -0.1523997,-0.135467 -0.1523997,-0.270933 0,-0.254 0.3217327,-0.254 0.0846665,0 0.2878661,0.0508 0.22013291,0.0508 0.44026581,0.0508 0.2201329,0 0.6265321,-0.118533 0.4233325,-0.135466 0.5418656,-0.2709328 0.1185331,-0.1523997 0.169333,-0.5249323 0.0508,-0.3894659 0.1015998,-1.2361309 0.0508,-0.8635983 0.0508,-1.1006645 0,-0.2370662 -0.169333,-0.2370662 -0.1523997,0 -1.6594634,0.6603987 Q 0.57573219,7.6877183 0.33866599,7.6877183 0,7.6877183 0,7.3998522 0,7.0950528 0.18626629,6.654787 0.37253259,6.1975879 0.77893179,5.9943883 1.2022643,5.7742554 2.031996,5.7065222 2.1674624,5.6895889 2.4722618,5.5879891 2.7770612,5.469456 2.8447944,5.300123 2.9125276,5.1138567 2.9125276,4.8259906 Z"
       style="font-style:normal;font-variant:normal;font-weight:normal;font-stretch:normal;font-size:16.9333px;font-family:STLiti;-inkscape-font-specification:STLiti;stroke-width:0.264583"
       id="path840" />
    <path
       d="m 31.800705,1.0498647 q 0,0.2878661 -0.491066,1.1006645 -0.474132,0.7958651 -1.269997,0.7958651 -0.406399,0 -0.880532,-0.2370662 -1.320797,-0.6265321 -4.013192,-0.6265321 -0.270933,0 -0.338666,0.084666 -0.06773,0.067733 -0.06773,0.3217327 0,0.2370662 0.135466,0.2709328 0.1524,0.033867 1.032932,0.033867 0.880531,0 2.048929,0.1862663 1.185331,0.169333 1.930396,0.4063992 0.745065,0.2201329 0.897465,0.338666 0.1524,0.1015998 0.1524,0.2709328 0,0.1523997 -0.220133,0.8635983 -0.2032,0.7111986 -0.609599,0.9482648 -0.406399,0.2201329 -0.541866,0.2201329 -0.135466,0 -0.135466,-0.2201329 0,-0.2201329 0.08467,-0.5926655 0.08467,-0.3725326 0.08467,-0.5587989 0,-0.2031996 -0.237066,-0.338666 -0.220133,-0.1354664 -0.728132,-0.2031996 -0.491066,-0.084666 -0.778932,-0.084666 -0.270933,0 -0.575732,0.2709328 -0.3048,0.2709328 -0.626532,0.5249323 -0.3048,0.2370662 -0.3048,0.507999 0,0.067733 0.01693,0.1523997 0.03387,0.067733 0.778931,0.7958651 0.745066,0.7281319 1.134532,1.0329313 0.406399,0.3047994 0.406399,0.5757322 0,0.2709328 -0.338666,0.6095988 -0.338666,0.338666 -0.711199,0.338666 -0.372532,0 -0.541865,-0.1015998 Q 26.703782,8.51745 26.297382,8.51745 q -1.219197,0 -1.38853,0.067733 -0.169333,0.067733 -0.118533,0.5587989 0.135466,1.5409299 0.135466,2.2859959 0,0.761998 -0.203199,0.931331 -0.186267,0.186266 -0.491066,0.186266 -0.3048,0 -0.491066,-0.270932 -0.169333,-0.270933 -0.169333,-0.524933 0,-0.253999 0.01693,-0.355599 0.135467,-0.948265 0.135467,-2.2690622 0,-0.3894659 -0.270933,-0.3894659 -0.270933,0 -0.931331,0.1354664 -0.643466,0.1185331 -1.066798,0.2709328 -0.4064,0.1354664 -0.829732,0.1354664 -0.423333,0 -0.677332,-0.1523997 -0.237066,-0.1523997 -0.237066,-0.4402658 0,-0.3047994 0.321732,-0.6265321 0.338666,-0.3217327 0.863599,-0.3217327 0.524932,0 1.320797,-0.4402658 0.812799,-0.4571991 0.812799,-0.6265321 0,-0.169333 -0.270933,-0.1523997 -1.049865,0.1015998 -1.168398,0.1015998 -0.491066,0 -0.931331,-0.2370662 -0.440266,-0.2370662 -0.440266,-0.6434654 0,-0.1523997 0.08467,-0.2709328 0.08467,-0.1185331 0.169333,-0.1523997 0.1016,-0.033867 0.457199,-0.033867 0.372533,0 0.897465,-0.2201329 0.541866,-0.2370662 0.914398,-0.5757322 0.372533,-0.3555993 0.372533,-0.4402658 0,-0.1015998 -0.135466,-0.1015998 -0.237067,0 -1.490131,0.3217327 -1.236131,0.3217327 -1.574797,0.677332 -0.321732,0.3555993 -0.440265,0.7450652 -0.1016,0.3894659 -0.575733,0.6434654 -0.457199,0.2539995 -0.677332,0.2539995 -0.203199,0 -0.169333,-0.3555993 0.03387,-0.3555993 0.03387,-0.7111986 0,-0.3555993 -0.0508,-0.6265321 -0.03387,-0.2709328 -0.03387,-0.3047994 0,-0.3894659 0.423333,-0.6265321 0.440266,-0.2370662 0.761998,-0.1862663 0.1524,0.016933 0.254,0.016933 0.389466,0 1.134531,-0.3555993 0.1524,-0.067733 0.829732,-0.2031996 0.677332,-0.1354664 1.405464,-0.2201329 0.321732,-0.0508 0.423332,-0.1523997 0.1016,-0.1185331 0.1016,-0.3725326 0,-0.2539995 -0.06773,-0.3047994 -0.0508,-0.067733 -0.220133,-0.067733 -0.778932,0 -1.99813,0.4910657 -0.474132,0.1862663 -1.557863,0.4402658 -1.066798,0.2539995 -1.557864,0.2539995 -0.711198,0 -0.711198,-0.5418656 0,-0.2539995 0.08467,-0.4233325 0.08467,-0.169333 0.2032,-0.169333 0.135466,0 0.186266,0.0508 0.06773,0.0508 0.169333,0.0508 0.270933,0 0.711199,-0.2370662 0.457199,-0.2539995 1.676396,-0.4741324 1.236131,-0.2201329 2.777062,-0.3217327 0.321732,-0.033867 0.423332,-0.1185331 0.118533,-0.084666 0.169333,-0.30479938 Q 23.842054,1.1825562e-7 24.045254,1.1825562e-7 q 0.101599,0 0.287866,0.18626630174438 0.203199,0.1862663 0.270932,0.4910657 0.06773,0.2878661 0.186267,0.37253258 0.118533,0.084666 0.558799,0.084666 0.440265,-0.016933 0.914398,-0.016933 2.133596,0 2.810928,0.2201329 0.203199,0.067733 0.491065,0.067733 0.287866,0 0.541866,-0.1185331 0.270933,-0.1185331 0.745065,-0.1185331 0.491066,0 0.643466,-0.1015998 0.152399,-0.11853308 0.220133,-0.11853308 0.08467,0 0.08467,0.10159978 z m -7.806251,4.4365246 q 0.457199,0 0.812798,-0.338666 0.355599,-0.338666 0.694265,-0.6942653 0.3556,-0.3725326 0.3556,-0.4910657 0,-0.2031996 -0.609599,-0.2031996 -0.372533,0 -0.592666,0.2709328 -0.372532,0.3725326 -0.965198,0.8805316 -0.169333,0.1354664 -0.169333,0.3047994 0,0.2709328 0.474133,0.2709328 z m 2.082796,1.7610632 q 0,-0.1185331 -0.270933,-0.5418656 -0.270933,-0.4402658 -0.507999,-0.4402658 -0.220133,0 -0.3556,0.1185331 -0.609598,0.5418656 -1.151464,0.9821314 -0.118533,0.084666 -0.118533,0.169333 0,0.084666 0.169333,0.084666 0.169333,0 1.100664,-0.084666 0.931332,-0.1015998 1.032932,-0.1354664 0.1016,-0.0508 0.1016,-0.1523997 z m 3.809992,2.6246615 q 0,0.2032 -0.491066,1.066798 -0.474132,0.863598 -1.219197,0.863598 -0.575732,0 -1.608664,-0.728132 -1.032931,-0.745065 -1.032931,-1.2361306 0,-0.2031996 0.118533,-0.338666 0.135466,-0.1523997 0.254,-0.1523997 0.118533,0 0.186266,0.033867 0.287866,0.1523997 0.609599,0.1354664 0.321732,-0.016933 0.338666,-0.016933 0.999064,0 1.896529,0.3047994 0.186267,0.067733 0.3556,0.067733 0.186266,0 0.321732,-0.033867 0.135467,-0.0508 0.2032,-0.0508 0.06773,0 0.06773,0.084666 z m -6.790253,-0.033867 q 0,0.3047996 -0.474133,0.9143986 -0.457199,0.609598 -1.151464,0.812798 -0.677332,0.220133 -1.100665,0.220133 -0.406399,0 -0.558798,-0.135466 -0.135467,-0.135467 -0.372533,-0.491066 -0.220133,-0.355599 -0.220133,-0.592666 0,-0.237066 0.338666,-0.253999 0.338666,-0.03387 1.354664,-0.287866 1.015998,-0.2539998 1.354664,-0.3894662 0.338666,-0.1354664 0.457199,-0.1354664 0.372533,0 0.372533,0.338666 z"
       style="font-style:normal;font-variant:normal;font-weight:normal;font-stretch:normal;font-size:16.9333px;font-family:STLiti;-inkscape-font-specification:STLiti;stroke-width:0.264583"
       id="path842" />
    <path
       d="m 48.530773,0.76199862 q 0,0.169333 -0.541866,1.01599798 -0.524932,0.8297317 -1.134531,0.8297317 -0.338666,0 -1.049864,-0.2709328 -0.745066,-0.2709328 -0.931332,-0.2709328 -0.186266,0 -0.524932,0.1185331 -0.338666,0.1015998 -0.457199,0.2370662 -0.118533,0.1354664 -0.507999,0.4910657 -0.372533,0.338666 -0.423333,0.4571991 -0.0508,0.1015998 -0.0508,0.2539995 0,0.3047994 0.3048,0.5926655 0.643465,0.5926655 1.456264,1.4901304 0.812798,0.8805316 0.999064,1.1514644 0.2032,0.2709328 0.2032,0.4402658 0,0.169333 -0.237066,0.3047994 -0.220133,0.1185331 -0.575733,0.1185331 -0.728131,0 -1.33773,-0.2201329 -0.728132,-0.3047994 -1.066798,-0.3047994 -0.914398,0 -1.151465,0.1354664 -0.220132,0.1185331 -0.186266,0.4233325 0.1016,0.9821314 0.1016,2.0150627 0,1.0159978 -0.118533,1.4393308 -0.118533,0.423332 -0.389466,0.423332 -0.254,0 -0.491066,-0.270933 -0.220133,-0.270932 -0.220133,-0.711198 0,-0.457199 0.118533,-1.4393307 l 0.169333,-1.5070637 q 0,-0.2878661 -0.270932,-0.2878661 -0.1524,0 -1.405464,0.1862663 -1.236131,0.169333 -1.84573,0.3725326 -0.423332,0.1185331 -0.728132,0.1185331 -0.643465,0 -0.643465,-0.4910657 0,-0.2370662 0.135466,-0.4402658 0.1524,-0.2031996 0.660399,-0.4741324 0.524932,-0.2878661 1.59173,-0.7111986 0.999065,-0.4402658 0.999065,-0.7111986 0,-0.1523997 -0.186267,-0.2201329 -0.186266,-0.084666 -0.575732,-0.1185331 -0.372532,-0.033867 -0.965198,-0.033867 -0.575732,0 -0.880531,-0.169333 -0.287867,-0.1862663 -0.287867,-0.3725326 0,-0.2031996 0.169333,-0.507999 0.169333,-0.3047994 0.745066,-0.3047994 0.575732,0 1.219197,-0.2709328 0.660399,-0.2878661 1.066798,-0.6603987 0.406399,-0.3725326 0.406399,-0.5757322 0,-0.2201329 -0.270932,-0.2201329 -0.270933,0 -1.69333,0.2709328 -1.405464,0.2539995 -1.777997,0.3894659 -0.372533,0.1185331 -0.812798,0.1185331 -0.423333,0 -0.745066,-0.2539995 -0.321732,-0.2539995 -0.321732,-0.507999 0,-0.2709328 0.135466,-0.4063992 0.135467,-0.1354664 0.270933,-0.1354664 0.135466,0 0.220133,0.0508 0.08467,0.033867 0.253999,0.033867 0.186267,0 0.609599,-0.1862663 0.423333,-0.18626628 1.879596,-0.30479938 1.456264,-0.1354664 3.183461,-0.1354664 l 5.317056,0.1015998 q 1.557864,0 2.201329,-0.1523997 0.169333,-0.0338666 0.270933,-0.0338666 0.118533,0 0.118533,0.1015998 z M 40.301189,3.6745262 q 0.541866,0 0.829732,-0.1015998 0.287866,-0.1015998 0.897465,-0.5926655 0.609599,-0.507999 0.812798,-0.7619985 0.220133,-0.2539995 0.220133,-0.3217327 0,-0.2370662 -1.134531,-0.2370662 -0.220133,0 -0.338666,0.067733 -0.118533,0.067733 -0.338666,0.2709328 -0.457199,0.507999 -0.999065,0.9143982 -0.524932,0.3894659 -0.524932,0.5926655 0,0.084666 0.08467,0.1354664 0.08467,0.033867 0.491066,0.033867 z m 2.539995,2.2859955 q 0,-0.1015998 -0.135466,-0.3047994 -0.118533,-0.2201329 -0.389466,-0.5249323 -0.254,-0.3217327 -0.338666,-0.3555993 -0.06773,-0.033867 -0.237066,-0.033867 -0.440266,0 -0.660399,0.1862663 -1.100665,0.9313315 -1.371597,1.0837312 -0.3048,0.2031996 -0.3048,0.3047994 0,0.169333 0.558799,0.169333 0.440266,0 1.337731,-0.1015998 0.897465,-0.1185331 1.219197,-0.1862663 0.321733,-0.084666 0.321733,-0.2370662 z m 5.012257,3.8438591 q 0,0.1862663 -0.406399,0.6095992 -0.389466,0.406399 -0.694266,0.575732 -0.304799,0.169333 -0.863598,0.169333 -0.541865,0 -1.083731,-0.287866 -0.541866,-0.3048 -0.948265,-0.677332 Q 43.467716,9.8213141 43.044384,9.5165147 42.621051,9.194782 42.519451,9.025449 q -0.08467,-0.169333 -0.08467,-0.3047994 0,-0.1354664 0.06773,-0.2539995 0.06773,-0.1354664 0.169333,-0.1354664 0.118533,0 0.321733,0.1354664 0.220133,0.1185331 0.406399,0.1185331 0.186266,0 1.676397,0.2709328 1.507063,0.2539995 2.133596,0.4571991 0.643465,0.2031996 0.643465,0.4910657 z M 39.319058,8.6698497 q 0,0.3217327 -1.557864,1.3207974 -1.557863,0.9821319 -1.998129,0.9821319 -0.440266,0 -0.846665,-0.220133 -0.406399,-0.237067 -0.575732,-0.474133 -0.169333,-0.253999 -0.169333,-0.6942651 0,-0.4571991 0.135466,-0.4571991 0.135466,0 0.389466,0.3047994 0.01693,0.016933 0.135466,0.016933 0.406399,0 1.74413,-0.2878661 1.337731,-0.3047994 1.862663,-0.4741324 0.541866,-0.1862663 0.643466,-0.1862663 0.237066,0 0.237066,0.169333 z"
       style="font-style:normal;font-variant:normal;font-weight:normal;font-stretch:normal;font-size:16.9333px;font-family:STLiti;-inkscape-font-specification:STLiti;stroke-width:0.264583"
       id="path844" />
    <path
       d="m 56.540193,0.79586522 q 0.3556,0 0.491066,0.1185331 0.135466,0.11853308 0.135466,0.33866598 0,0.4741324 -0.575732,0.8635983 -0.270933,0.1862663 -0.592665,0.5418656 -0.3048,0.3555993 -1.066798,1.4223972 -0.761999,1.0498646 -0.863598,1.2191976 -0.08467,0.1523997 -0.08467,0.2201329 0,0.0508 0.08467,0.0508 0.135466,0 0.880531,-0.2370662 0.761999,-0.2539995 0.965198,-0.4402658 0.220133,-0.2031996 0.287866,-0.2031996 0.06773,0 0.06773,0.084666 0,0.067733 -0.169333,0.3725326 -0.169333,0.2878661 -0.338666,0.7281319 -0.1524,0.4402658 -0.287867,0.5757322 -0.135466,0.1185331 -0.457199,0.1862663 -2.150529,0.507999 -2.810927,0.7958651 -0.660399,0.2878661 -0.914399,0.2878661 -0.406399,0 -0.406399,-0.4571991 0,-0.6095988 1.100665,-1.2869308 0.287866,-0.169333 0.694265,-0.5249323 0.406399,-0.3555993 0.474132,-0.4402658 0.06773,-0.1015998 0.06773,-0.1862663 0,-0.084666 -0.1016,-0.1523997 -0.08467,-0.084666 -0.491066,-0.1185331 -0.389466,-0.033867 -0.609599,-0.033867 -0.203199,-0.016933 -0.541865,0.1015998 -0.321733,0.1015998 -0.558799,0.1015998 -0.389466,0 -0.389466,-0.3555993 0,-0.3555993 0.1524,-0.7281319 0.152399,-0.3894659 0.626532,-0.5418656 0.474132,-0.169333 1.151464,-0.5587989 0.694265,-0.4063992 1.286931,-1.0329313 0.592665,-0.62653208 0.863598,-1.10066448 0.118533,-0.2201329 0.355599,-0.2201329 0.237067,0 0.4064,0.1862663 0.186266,0.169333 0.186266,0.3555993 0,0.42333248 -0.778932,0.86359828 -0.507999,0.2878661 -0.914398,0.7450652 -0.406399,0.4402658 -0.406399,0.6434654 0,0.1862663 0.457199,0.1862663 0.253999,0 0.524932,-0.0508 0.287866,-0.0508 0.457199,-0.2709328 0.880532,-1.2191976 1.151465,-1.4393305 0.287866,-0.2370662 0.253999,-0.338666 -0.03387,-0.10159978 -0.03387,-0.18626628 0,-0.0846665 0.270932,-0.0846665 z m 9.279449,6.90878638 q 0.135466,0 0.135466,0.8974649 0,1.2191976 -0.474132,2.2182625 -0.457199,0.999065 -1.456264,0.999065 -0.660399,0 -1.727197,-0.321733 -1.066798,-0.321733 -1.777996,-0.389466 -0.372533,-0.03387 -0.609599,-0.389466 -0.220133,-0.355599 -0.220133,-0.7450652 0,-0.4063992 0.03387,-0.6434654 0.372532,-2.7939945 0.372532,-3.2681269 0,-0.2370662 -0.203199,-0.2370662 -0.440266,0 -0.609599,0.3725326 -0.1524,0.3555993 -0.558799,1.5917302 -0.406399,1.2361309 -0.948265,1.9811961 -0.541865,0.7281318 -1.117598,1.0159978 -0.558798,0.287866 -0.982131,0.287866 -0.423332,0 -0.677332,-0.372532 -0.237066,-0.389466 -0.237066,-0.558799 0,-0.118533 0.287866,-0.118533 0.304799,0 1.337731,-0.7789321 1.032931,-0.7789318 1.557863,-1.69333 0.541866,-0.9313315 0.541866,-1.1514644 0,-0.2201329 -0.186266,-0.2201329 -0.169333,0 -0.694266,0.2370662 -0.524932,0.2201329 -0.795865,0.2201329 -0.253999,0 -0.389466,-0.169333 -0.118533,-0.169333 -0.118533,-0.4571991 0,-0.3047994 0.06773,-0.3894659 0.06773,-0.084666 0.3048,-0.2031996 0.745065,-0.338666 1.083731,-0.8635983 0.355599,-0.5249323 0.355599,-0.6942653 0,-0.169333 -0.203199,-0.169333 -0.2032,0 -0.507999,0.084666 -0.287866,0.084666 -0.491066,0.084666 -0.541866,0 -0.541866,-0.9821314 0,-0.2370662 0.1016,-0.3217327 0.118533,-0.084666 0.643466,-0.2031996 0.524932,-0.1354664 1.879596,-0.3894659 0.321733,-0.0508 0.474132,-0.338666 0.1524,-0.2878661 0.1524,-0.4910657 0,-0.20319958 -0.08467,-0.32173268 -0.06773,-0.1354664 -0.06773,-0.2539995 0,-0.1354664 0.270933,-0.2031996 0.287866,-0.0677332 0.491066,-0.0677332 0.778932,0 0.897465,1.01599798 0.01693,0.2031996 0.169333,0.338666 0.152399,0.1185331 0.389466,0.1015998 0.253999,-0.016933 0.677332,-0.016933 0.423332,0 1.219197,0.1015998 0.795865,0.084666 0.982132,0.2370662 0.186266,0.1354664 0.186266,0.3725326 0,0.2201329 -0.389466,0.5249323 -0.389466,0.3047994 -0.761999,0.3047994 -0.372532,0 -0.846665,-0.033867 -0.457199,-0.0508 -0.491065,-0.0508 -0.186267,0 -0.186267,0.2201329 0,0.1015998 0.287867,0.6265321 0.304799,0.5249323 0.609598,0.8635983 0.3048,0.3217327 0.3048,0.5249323 0,0.1862663 -0.135467,0.4063992 -0.135466,0.2201329 -0.423332,0.2201329 -0.287866,0 -0.592666,-0.169333 -0.304799,-0.1862663 -0.745065,-0.1862663 -0.423332,0 -0.423332,0.2031996 0,0.0508 0.03387,0.1523997 0.254,0.6265321 0.254,1.2699975 0,0.6434654 -0.1016,1.0667979 -0.1016,0.4063992 -0.1016,0.5757322 0,0.4741324 0.524932,0.6095988 0.541866,0.1354664 1.100665,0.1354664 0.575732,0 1.236131,-0.3047994 0.677332,-0.3217327 0.982131,-0.5418656 0.321733,-0.2370662 0.575732,-0.6942653 0.270933,-0.4571991 0.3556,-0.4571991 z M 61.298451,4.0639921 q 0,-0.2539995 -0.118533,-0.5587989 -0.1016,-0.3047994 -0.321733,-0.3047994 -0.1016,0 -0.558799,0.0508 -0.440266,0.0508 -0.558799,0.067733 -0.1016,0.016933 -0.220133,0.1015998 -0.1016,0.084666 -0.186266,0.3047994 -0.06773,0.2031996 -0.2032,0.4402658 -0.118533,0.2370662 -0.118533,0.3217327 0,0.084666 0.135467,0.084666 0.152399,0 0.338666,-0.033867 0.592665,-0.1185331 1.557863,-0.1523997 0.254,0 0.254,-0.3217327 z m -5.046124,3.38666 q 0,0.1862663 -0.287866,0.677332 -0.270933,0.4741324 -0.829732,0.8635983 -0.558798,0.3894659 -1.117597,0.507999 -0.541866,0.1185331 -0.812799,0.2201329 l -1.134531,0.4741327 q -0.541865,0.220133 -0.914398,0.220133 -0.728132,0 -0.728132,-0.8635987 0,-0.3217327 0.118533,-0.4571991 0.118533,-0.1354664 0.507999,-0.2370662 0.406399,-0.1185331 0.880532,-0.338666 0.474132,-0.2201329 1.219197,-0.4402658 0.761999,-0.2370662 1.269998,-0.3047994 0.795865,-0.1015998 1.49013,-0.3725326 0.1524,-0.067733 0.237066,-0.067733 0.1016,0 0.1016,0.1185331 z"
       style="font-style:normal;font-variant:normal;font-weight:normal;font-stretch:normal;font-size:16.9333px;font-family:STLiti;-inkscape-font-specification:STLiti;stroke-width:0.264583"
       id="path846" />
  </g>
</svg>
